<?xml version="1.0" encoding="UTF-8"?>
<svg width="687" height="631" version="1.1" viewBox="0 0 687 631" xml:space="preserve" xmlns="http://www.w3.org/2000/svg" xmlns:cc="http://creativecommons.org/ns#" xmlns:dc="http://purl.org/dc/elements/1.1/" xmlns:rdf="http://www.w3.org/1999/02/22-rdf-syntax-ns#" xmlns:xlink="http://www.w3.org/1999/xlink"><title>DOD Logo Alternate Light on Dark</title><metadata><rdf:RDF><cc:Work rdf:about=""><dc:format>image/svg+xml</dc:format><dc:type rdf:resource="http://purl.org/dc/dcmitype/StillImage"/><dc:title>DOD Logo Alternate Light on Dark</dc:title></cc:Work></rdf:RDF></metadata>
<defs><linearGradient id="Pentagon"><stop stop-color="#ffffff" offset="0"/><stop stop-color="#adadad" offset="1"/></linearGradient></defs>
<g fill="#ffffff">
<path d="m127.11 554.05c2.3203 0 4.5723-0.39648 6.7617-1.1856 2.1836-0.79004 4.1299-2.1045 5.8389-3.9356 1.7051-1.8301 3.0732-4.2168 4.0977-7.1621s1.5352-6.5381 1.5352-10.775c0-3.8789-0.35938-7.3818-1.0762-10.507-0.7168-3.1221-1.8955-5.8027-3.5322-8.0273-1.6396-2.2275-3.8086-3.9326-6.5059-5.1172-2.6992-1.1875-6.0293-1.7783-9.9893-1.7783h-11.473v48.488h14.343zm1.126-62.712c4.7129 0 9.0996 0.79102 13.164 2.3721 4.0625 1.5791 7.5801 3.9502 10.549 7.1104 2.9717 3.1621 5.293 7.1113 6.9678 11.854 1.6728 4.7402 2.5098 10.308 2.5098 16.699 0 5.6025-0.68359 10.777-2.0488 15.518-1.3682 4.7402-3.4326 8.835-6.1982 12.282s-6.2148 6.1602-10.346 8.1338c-4.1328 1.9795-8.998 2.9648-14.598 2.9648h-31.552v-76.934h31.552z"/>
<polygon transform="translate(61,61)" points="131.12 444.57 131.12 461.05 166.56 461.05 166.56 474.2 131.12 474.2 131.12 493.05 170.55 493.05 170.55 507.28 115.03 507.28 115.03 430.34 169.74 430.34 169.74 444.57"/>
<polygon transform="translate(61,61)" points="202.62 444.57 202.62 462.35 233.25 462.35 233.25 475.49 202.62 475.49 202.62 507.28 186.54 507.28 186.54 430.34 237.96 430.34 237.96 444.57"/>
<polygon transform="translate(61,61)" points="267.02 444.57 267.02 461.05 302.47 461.05 302.47 474.2 267.02 474.2 267.02 493.05 306.46 493.05 306.46 507.28 250.94 507.28 250.94 430.34 305.64 430.34 305.64 444.57"/>
<polygon transform="translate(61,61)" points="370.62 481.96 370.62 430.34 385.68 430.34 385.68 507.28 369.6 507.28 339.17 455.77 338.97 455.77 338.97 507.28 323.91 507.28 323.91 430.34 339.89 430.34 370.42 481.96"/>
<path d="m478.23 549.31c0.8877 1.7959 2.0664 3.252 3.5361 4.3633 1.4668 1.1152 3.1924 1.9394 5.1719 2.4775 1.9805 0.53906 4.0293 0.81055 6.1465 0.81055 1.4326 0 2.9717-0.12695 4.6113-0.37793 1.6367-0.25195 3.1758-0.7373 4.6074-1.4551 1.4356-0.71582 2.6279-1.7041 3.5879-2.9619 0.95605-1.2568 1.4346-2.8564 1.4346-4.7959 0-2.083-0.63379-3.7715-1.8984-5.0625-1.2627-1.294-2.916-2.3721-4.9658-3.2334-2.0488-0.86133-4.3711-1.6182-6.9678-2.2646-2.5957-0.64746-5.2236-1.3633-7.8867-2.1553-2.7344-0.71484-5.3945-1.5967-7.9902-2.6396-2.5967-1.041-4.919-2.3867-6.9678-4.0391s-3.7031-3.7158-4.9688-6.1953c-1.2646-2.4785-1.8955-5.4785-1.8955-8.998 0-3.9512 0.80371-7.3799 2.4092-10.29 1.6016-2.9082 3.7051-5.334 6.3018-7.2725 2.5938-1.9404 5.5303-3.376 8.8096-4.3125 3.2764-0.92871 6.5557-1.4004 9.832-1.4004 3.8262 0 7.498 0.4502 11.014 1.3477 3.5156 0.90039 6.6416 2.3555 9.374 4.3652 2.7285 2.0098 4.9014 4.5781 6.5039 7.7041 1.6045 3.124 2.4082 6.915 2.4082 11.368h-15.572c-0.14063-2.2978-0.59863-4.2041-1.3799-5.7109-0.79004-1.5088-1.833-2.6973-3.127-3.5596-1.2969-0.8584-2.7832-1.4688-4.458-1.8281-1.6709-0.3584-3.498-0.53906-5.4805-0.53906-1.2969 0-2.5967 0.14551-3.8906 0.42969-1.2988 0.29004-2.4746 0.79395-3.5322 1.5088-1.0606 0.71973-1.9336 1.6182-2.6172 2.6943-0.67969 1.0772-1.0225 2.4424-1.0225 4.0947 0 1.5098 0.27344 2.7285 0.81836 3.6621 0.54785 0.93359 1.6221 1.7969 3.2305 2.5879 1.6016 0.79297 3.8203 1.582 6.6562 2.3691 2.8359 0.79102 6.541 1.7978 11.117 3.0166 1.3633 0.28809 3.2598 0.80957 5.6826 1.5625 2.4268 0.75488 4.833 1.959 7.2246 3.6133 2.3887 1.6514 4.4551 3.8613 6.1953 6.625 1.7432 2.7656 2.6133 6.3018 2.6133 10.612 0 3.5205-0.65039 6.79-1.9443 9.8066-1.2998 3.0176-3.2305 5.6211-5.7891 7.8096-2.5654 2.1943-5.7383 3.8975-9.5273 5.1172-3.789 1.2217-8.1807 1.833-13.166 1.833-4.0283 0-7.9385-0.52148-11.729-1.5606-3.7891-1.043-7.1377-2.6758-10.036-4.9033-2.9082-2.2275-5.21-5.0644-6.919-8.5137-1.706-3.4473-2.5244-7.542-2.458-12.282h15.572c1e-5 2.584 0.44337 4.7774 1.3311 6.5723z"/>
<polygon transform="translate(61,61)" points="489.7 444.57 489.7 461.05 525.15 461.05 525.15 474.2 489.7 474.2 489.7 493.05 529.14 493.05 529.14 507.28 473.62 507.28 473.62 430.34 528.32 430.34 528.32 444.57"/>
<path d="m65.167 405.49v42.651c0 1.3945 0.06348 3.0225 0.18945 4.8809 0.12598 1.8623 0.44238 3.7725 0.94727 5.7305 0.50586 1.9609 1.2168 3.8877 2.1318 5.7793 0.91504 1.8936 2.1641 3.5879 3.7422 5.083 1.5772 1.4961 3.5225 2.6914 5.8281 3.5859 2.3027 0.89746 5.0996 1.3447 8.3838 1.3447 4.169 0 7.6592-0.61133 10.471-1.8418 2.8086-1.2305 5.082-2.9883 6.8184-5.2822 1.7373-2.29 2.9863-5.0625 3.7451-8.3184 0.75586-3.2568 1.1348-6.9092 1.1348-10.962v-42.651h4.1699v42.651c0 4.2529-0.42773 8.2041-1.2803 11.857-0.85156 3.6543-2.29 6.8438-4.3106 9.5674-2.0225 2.7227-4.7227 4.8672-8.1006 6.4277-3.3789 1.5576-7.5957 2.3408-12.647 2.3408-3.9795 0-7.3906-0.53613-10.232-1.5967-2.8418-1.0615-5.1953-2.4404-7.0596-4.1328-1.8623-1.6934-3.3291-3.6387-4.4033-5.8281-1.0752-2.1963-1.8945-4.4033-2.4639-6.6279-0.56836-2.2246-0.91699-4.3857-1.041-6.4795-0.12891-2.0908-0.18946-3.9336-0.18946-5.5283v-42.651z"/>
<path d="m178.79 425.82c-0.12695-3.0576-0.74316-5.7148-1.8467-7.9736-1.1064-2.2568-2.6064-4.1514-4.5-5.6797-1.8965-1.5273-4.1543-2.6709-6.7764-3.4394-2.6191-0.76465-5.4785-1.1455-8.5732-1.1455-1.8945 0-3.9316 0.2334-6.1113 0.69727-2.1768 0.4668-4.1992 1.2793-6.0635 2.4414-1.8633 1.167-3.3945 2.7256-4.5938 4.6856-1.2012 1.959-1.7998 4.4023-1.7998 7.3232 0 2.8574 0.66211 5.1816 1.9893 6.9775 1.3252 1.793 3.0615 3.2383 5.2119 4.333 2.1455 1.0967 4.6084 1.9766 7.3896 2.6377 2.7783 0.66602 5.5879 1.2988 8.4307 1.8965 2.9043 0.59961 5.7344 1.3115 8.4795 2.1436 2.748 0.83203 5.2109 1.96 7.3906 3.3896 2.1797 1.4258 3.9316 3.2842 5.2588 5.5781 1.3252 2.291 1.9873 5.167 1.9873 8.6191 0 3.7217-0.75586 6.8438-2.2734 9.3682-1.5137 2.5264-3.4248 4.585-5.7314 6.1787-2.3057 1.5938-4.8643 2.7383-7.6738 3.4375-2.8115 0.69727-5.5117 1.0459-8.1006 1.0459-3.9795 0-7.706-0.44824-11.178-1.3457-3.4766-0.89746-6.5088-2.3555-9.0977-4.3838-2.5889-2.0244-4.627-4.6357-6.1113-7.8223-1.4844-3.1894-2.1943-7.0752-2.1309-11.659h4.169c-0.18945 3.919 0.34668 7.2236 1.6113 9.915 1.2627 2.6885 3.0156 4.8994 5.2588 6.625 2.2393 1.7324 4.8789 2.9736 7.9102 3.7373 3.0322 0.76367 6.2207 1.1445 9.5684 1.1445 2.0195 0 4.1846-0.2627 6.4902-0.7959 2.3057-0.5293 4.4199-1.4258 6.3486-2.6894 1.9248-1.2607 3.5352-2.9238 4.832-4.9844 1.292-2.0566 1.9424-4.6475 1.9424-7.7715 0-2.9883-0.66504-5.4307-1.9912-7.3252-1.3262-1.8926-3.0781-3.4199-5.2588-4.583-2.1787-1.1611-4.6416-2.0938-7.3896-2.7881-2.7461-0.69824-5.5752-1.3457-8.4775-1.9453-2.8428-0.59766-5.6543-1.2969-8.4326-2.0947-2.7812-0.79492-5.2441-1.874-7.3906-3.2363-2.1475-1.3613-3.8838-3.1201-5.2109-5.2803-1.3252-2.1602-1.9893-4.9336-1.9893-8.3223 0-3.3877 0.67676-6.292 2.0371-8.7197 1.3574-2.4248 3.125-4.3848 5.3047-5.877 2.1797-1.4961 4.627-2.5938 7.3428-3.291 2.7148-0.69727 5.4004-1.0478 8.0527-1.0478 3.5371 0 6.8369 0.41699 9.9014 1.248 3.0615 0.83105 5.7461 2.125 8.0527 3.8857 2.3057 1.7627 4.1514 4.0361 5.542 6.8272 1.3877 2.7861 2.1797 6.1436 2.3691 10.065h-4.1689z"/>
<path d="m252.81 473.67c3.2959 0 6.6084-0.53906 9.9394-1.6143 3.3291-1.0742 6.3457-2.876 9.0488-5.4082s4.8955-5.9307 6.5772-10.192c1.6816-4.2666 2.5234-9.625 2.5234-16.075 0-5.0615-0.48047-9.3975-1.4356-13.001-0.95605-3.6074-2.209-6.6416-3.7598-9.1025-1.5478-2.4609-3.3262-4.4062-5.3398-5.8272-2.0088-1.4209-4.0879-2.5127-6.2305-3.2793-2.1436-0.75879-4.2871-1.2646-6.4268-1.5068-2.1436-0.24219-4.0732-0.36426-5.7861-0.36426h-18.102v66.371h18.991zm-23.341-70.323h23.143c6.3291 0 11.589 1.04 15.775 3.1201 4.1875 2.081 7.5303 4.8545 10.038 8.3223 2.5059 3.4697 4.2686 7.4228 5.292 11.861 1.0215 4.4385 1.5322 9.0146 1.5322 13.729 0 5.2686-0.64258 10.182-1.9268 14.721-1.2861 4.541-3.2812 8.4775-5.9844 11.806-2.706 3.331-6.1182 5.9492-10.239 7.8555-4.1191 1.9082-9.0146 2.8584-14.685 2.8584h-22.945z"/>
<polygon transform="translate(61,61)" points="284.35 346.3 241.23 346.3 241.23 376.05 281.78 376.05 281.78 380 241.23 380 241.23 412.67 284.85 412.67 284.85 416.62 236.88 416.62 236.88 342.34 284.35 342.34"/>
<path d="m365.35 440.59h24.828c3.1641 0 5.8477-0.50195 8.0606-1.5078 2.207-1.0049 3.9707-2.3047 5.2881-3.9014 1.3193-1.5967 2.2764-3.3662 2.8701-5.3047 0.59277-1.9424 0.88965-3.8867 0.88965-5.8281 0-1.3877-0.19824-3.0332-0.59375-4.9414-0.39746-1.9062-1.1865-3.7461-2.374-5.5137s-2.8525-3.2578-4.9941-4.4707c-2.1406-1.2158-4.9961-1.8223-8.5527-1.8223h-25.422v33.29zm-4.3506-37.242h30.066c1.9775 0 4.1699 0.24414 6.5791 0.72852 2.4033 0.48438 4.6484 1.4756 6.7256 2.9619 2.0781 1.4941 3.8037 3.6084 5.1904 6.3486 1.3857 2.7402 2.0772 6.3281 2.0772 10.766 0 6.5195-1.9131 11.549-5.7344 15.086-3.8242 3.5352-9.2988 5.3047-16.42 5.3047h-24.134v33.078h-4.3506z"/>
<polygon transform="translate(61,61)" points="408.48 342.34 408.48 346.3 383.56 346.3 383.56 416.62 379.21 416.62 379.21 346.3 354.38 346.3 354.38 342.34"/>
<path d="m507.44 440.48c0 4.7871 0.66016 9.294 1.9805 13.521 1.3164 4.2324 3.2275 7.9268 5.7344 11.082 2.5068 3.1572 5.5732 5.669 9.2012 7.542 3.6221 1.873 7.7451 2.8066 12.362 2.8066 4.6133 0 8.7168-0.93359 12.312-2.8066 3.5908-1.873 6.6396-4.3848 9.1494-7.542 2.5039-3.1553 4.415-6.8496 5.7344-11.082 1.3203-4.2275 1.9795-8.7344 1.9795-13.521 0-4.7842-0.65918-9.293-1.9795-13.526-1.3193-4.2256-3.2305-7.9209-5.7344-11.074-2.5098-3.1582-5.5586-5.6709-9.1494-7.5469-3.5957-1.8701-7.6992-2.8066-12.312-2.8066-4.6172 0-8.7402 0.93652-12.362 2.8066-3.6279 1.876-6.6943 4.3887-9.2012 7.5469-2.5068 3.1533-4.418 6.8486-5.7344 11.074-1.3203 4.2334-1.9805 8.7422-1.9805 13.526zm62.806 0c0 5.4092-0.75781 10.489-2.2734 15.241-1.5186 4.751-3.709 8.876-6.5791 12.378-2.8672 3.5029-6.3799 6.2578-10.532 8.2725-4.1553 2.0098-8.8691 3.0166-14.143 3.0166-5.2764 0-10.009-1.0068-14.192-3.0166-4.1904-2.0146-7.7168-4.7695-10.584-8.2725-2.8672-3.502-5.0606-7.627-6.5791-12.378-1.5156-4.752-2.2705-9.832-2.2705-15.241 0-5.4111 0.75488-10.488 2.2705-15.24 1.5186-4.749 3.7119-8.876 6.5791-12.377 2.8672-3.5039 6.3936-6.2588 10.584-8.2734 4.1836-2.0107 8.916-3.0166 14.192-3.0166 5.2734 0 9.9873 1.0059 14.143 3.0166 4.1523 2.0146 7.665 4.7695 10.532 8.2734 2.8701 3.501 5.0606 7.6279 6.5791 12.377 1.5156 4.7519 2.2734 9.8291 2.2734 15.24z"/>
<polygon transform="translate(61,61)" points="565 346.3 525.04 346.3 525.04 376.05 561.04 376.05 561.04 380 525.04 380 525.04 416.62 520.69 416.62 520.69 342.34 565 342.34"/>
<polygon transform="translate(61,61)" points="56.452 408.95 62.039 408.95 62.039 417.33 56.452 417.33"/>
<polygon transform="translate(61,61)" points="129.09 408.95 134.68 408.95 134.68 417.33 129.09 417.33"/>
</g>
<polygon transform="translate(61,61)" points="100.69 302 42.432 131.48 41.898 78.798 100.85 241.01" fill="url(#Pentagon)"/>
<polygon transform="translate(61,61)" points="465.51 302 522.11 131.48 522.87 79.384 465.51 240.2" fill="url(#Pentagon)"/>
<path d="m425.92 218.64h-156.13l-15.924-41.704-9.8154-25.707 102.57-33.488 104.47 33.488zm-79.158-157.64-239.52 76.438 58.749 153.87h356.37l57.457-153.87z" fill="url(#Pentagon)"/>
<polygon transform="translate(61,61)" points="107.7 240.22 458.05 240.22 458.05 301.44 107.69 301.44" fill="url(#Pentagon)"/>
<polygon transform="translate(61,61)" points="282.17 93.986 282.17 64.979 191.99 94.492 200.8 117.27" fill="#adadad"/>
<polygon transform="translate(61,61)" points="372.43 117.58 381.2 94.939 289.16 65.198 289.16 94.217" fill="#adadad"/>
</svg>
