<svg width="124" height="45" xmlns:xlink="http://www.w3.org/1999/xlink" xmlns="http://www.w3.org/2000/svg" version="1.1" viewBox="0.0 0.0 357.1364829396326 129.4041994750656" fill="none" stroke="none" stroke-linecap="square" stroke-miterlimit="10"><clipPath id="p.0"><path d="m0 0l357.13647 0l0 129.4042l-357.13647 0l0 -129.4042z" clip-rule="nonzero"/></clipPath><g clip-path="url(#p.0)"><path fill="#000000" fill-opacity="0.0" d="m0 0l357.13647 0l0 129.4042l-357.13647 0z" fill-rule="evenodd"/><path fill="#ffffff" d="m139.89424 91.48732c-0.4250946 0 -0.7997284 0.09992218 -1.1251831 0.27573395c-0.35066223 0.17581177 -0.52474976 0.40094757 -0.52474976 0.6526489l0 11.311371c0 2.5094223 1.6007385 3.7881622 4.776993 3.7881622l1.0015717 0c0.45031738 0 0.7997284 -0.1505127 1.0507507 -0.40094757c0.24977112 -0.27700043 0.37464905 -0.57676697 0.37464905 -0.95368195c0 -0.37565613 -0.12487793 -0.67668915 -0.37464905 -0.95368195c-0.25102234 -0.25043488 -0.60043335 -0.4009552 -1.0507507 -0.4009552l-1.0015717 0c-0.52474976 0 -0.90065 -0.07462311 -1.1251831 -0.25043488c-0.22453308 -0.17581177 -0.3254547 -0.50213623 -0.3254547 -0.9283829l0 -4.9163895l3.0526428 0c0.24975586 0 0.47428894 -0.12522125 0.62438965 -0.35035706c0.15011597 -0.25170135 0.22579956 -0.5274353 0.22579956 -0.85375977c0 -0.3263321 -0.075683594 -0.6020584 -0.22579956 -0.8525009c-0.15010071 -0.2251358 -0.3746338 -0.35162354 -0.62438965 -0.35162354l-3.0526428 0l0 -3.912117c0 -0.25170135 -0.17532349 -0.47683716 -0.49951172 -0.62734985c-0.3254547 -0.17581177 -0.72657776 -0.27573395 -1.1769104 -0.27573395z" fill-rule="evenodd"/><path fill="#ffffff" d="m154.27945 98.56024c0.6244049 0 1.1756439 0.17581177 1.6007385 0.50214386c0.45033264 0.3010254 0.6496277 0.72727203 0.6496277 1.2534409c0 0.22640991 -0.049194336 0.3769226 -0.15010071 0.4768448c-0.12487793 0.07588959 -0.32418823 0.09992218 -0.60043335 0.09992218l-3.7514648 0l0 -0.60079956c0 -0.5274277 0.22453308 -0.9283829 0.6496277 -1.2547073c0.45033264 -0.30103302 0.9763489 -0.4768448 1.602005 -0.4768448zm0.074417114 -2.4082336c-1.5755005 0 -2.901245 0.4768448 -4.0276947 1.4052277c-1.0999603 0.9283829 -1.6511993 2.0313187 -1.6511993 3.311325l0 2.0060196c0 1.4545517 0.60043335 2.6333694 1.7508545 3.5124283c1.1768951 0.87779236 2.6767273 1.3293381 4.50325 1.3293381c1.3005219 0 2.3765106 -0.22640991 3.2519379 -0.65265656c0.87542725 -0.42624664 1.3005219 -0.8524933 1.3005219 -1.304039c0 -0.27573395 -0.12487793 -0.57675934 -0.349411 -0.87779236c-0.25102234 -0.3010254 -0.5499878 -0.47683716 -0.90065 -0.47683716c-0.20057678 0 -0.60043335 0.1505127 -1.2513275 0.45154572c-0.6244049 0.3010254 -1.2752991 0.45154572 -1.9261932 0.45154572c-0.9246063 0 -1.6511841 -0.20111084 -2.2011719 -0.6273575c-0.54997253 -0.4009552 -0.82496643 -0.95368195 -0.82496643 -1.6303635l0 -0.35162354l5.22731 0c0.37591553 0 0.6761322 -0.024032593 0.9006653 -0.049331665c0.20056152 -0.025291443 0.45031738 -0.10118866 0.7253113 -0.22640228c0.27624512 -0.12522125 0.47555542 -0.35035706 0.60043335 -0.6513901c0.12614441 -0.3010254 0.17533875 -0.677948 0.17533875 -1.1547852c0 -1.2787476 -0.49952698 -2.332344 -1.5502777 -3.184845c-1.050766 -0.8524933 -2.3020935 -1.2800064 -3.7527313 -1.2800064z" fill-rule="evenodd"/><path fill="#ffffff" d="m169.0128 96.15201c-1.8757324 0 -3.2771606 0.45154572 -4.201782 1.3293381c-0.9258728 0.9030838 -1.4014282 2.0578766 -1.4014282 3.5124283l0 1.880806c0 1.4798508 0.47555542 2.6333694 1.4014282 3.5124283c0.9246216 0.90182495 2.3260498 1.3293381 4.2270203 1.3293381c1.1504059 0 2.1759338 -0.20111084 3.0021667 -0.6020584c0.82496643 -0.40222168 1.250061 -0.85375977 1.250061 -1.3293381c0 -0.32632446 -0.12487793 -0.6526489 -0.39987183 -0.978981c-0.27497864 -0.3010254 -0.60043335 -0.4515381 -1.025528 -0.4515381c-0.12487793 0 -0.45031738 0.10118103 -0.95111084 0.32632446c-0.49951172 0.2251358 -1.0507507 0.35162354 -1.6259613 0.35162354c-1.7003937 0 -2.5266266 -0.72727966 -2.5266266 -2.1577988l0 -1.880806c0 -1.4305191 0.8262329 -2.1324997 2.502655 -2.1324997c0.5752106 0 1.1251831 0.09992218 1.6259766 0.3010254c0.52474976 0.22640991 0.82496643 0.3263321 0.9246063 0.3263321c0.37590027 0 0.6761322 -0.17581177 0.92588806 -0.50213623c0.2749939 -0.3250656 0.39987183 -0.6513901 0.39987183 -0.97771454c0 -0.4768448 -0.39987183 -0.90309143 -1.2008667 -1.2787476c-0.7745209 -0.37691498 -1.7760773 -0.5780258 -2.9264984 -0.5780258z" fill-rule="evenodd"/><path fill="#ffffff" d="m178.89474 89.78107c-0.5007782 0 -0.90065 0.10118103 -1.2008667 0.27572632c-0.30021667 0.17581177 -0.45033264 0.40222168 -0.45033264 0.6779556l0 15.8027725c0 0.2504425 0.17533875 0.4755783 0.47555542 0.67668915c0.32418823 0.20110321 0.72532654 0.3010254 1.1756439 0.3010254c0.45033264 0 0.85020447 -0.09992218 1.1756439 -0.32632446c0.349411 -0.20111084 0.49952698 -0.40094757 0.49952698 -0.6513901l0 -5.5690384c0 -0.6273575 0.2257843 -1.1282272 0.6508789 -1.5304489c0.42510986 -0.40094757 0.9006653 -0.57675934 1.4758606 -0.57675934c0.60043335 0 1.1251831 0.20111084 1.5755157 0.6526489c0.45033264 0.42624664 0.67611694 0.9283905 0.67611694 1.4545593l0 5.5690384c0 0.29976654 0.17533875 0.5261688 0.49952698 0.7019806c0.3506775 0.17581177 0.7253113 0.27573395 1.1516724 0.27573395c0.45031738 0 0.8501892 -0.09992218 1.1756439 -0.27573395c0.349411 -0.17581177 0.49951172 -0.40221405 0.49951172 -0.7019806l0 -5.5943375c0 -1.304039 -0.4250946 -2.4322662 -1.3257446 -3.360649c-0.87542725 -0.95368195 -1.926178 -1.4305267 -3.101822 -1.4305267c-0.7757721 0 -1.4506378 0.17581177 -2.0258331 0.5274353c-0.5752106 0.35035706 -0.9763489 0.7778702 -1.2513275 1.2787399l0 -7.2234344c0 -0.27573395 -0.15011597 -0.50214386 -0.47555542 -0.6779556c-0.32418823 -0.17454529 -0.72532654 -0.27572632 -1.1996155 -0.27572632z" fill-rule="evenodd"/><path fill="#ffffff" d="m199.53154 96.15201c-0.82496643 0 -1.5250549 0.17581177 -2.1254883 0.5274353c-0.6256714 0.35035706 -1.0759888 0.7778702 -1.3509827 1.2787399l0 -0.7019806c0 -0.27572632 -0.12487793 -0.5261688 -0.4250946 -0.7019806c-0.2749939 -0.17580414 -0.6256714 -0.25170135 -1.050766 -0.25170135c-0.47555542 0 -0.90065 0.07589722 -1.2008667 0.25170135c-0.30021667 0.17581177 -0.45033264 0.4009552 -0.45033264 0.7019806l0 9.281319c0 0.2504425 0.17533875 0.4755783 0.47555542 0.67668915c0.3254547 0.20110321 0.72532654 0.3010254 1.1756439 0.3010254c0.45033264 0 0.85020447 -0.09992218 1.1756439 -0.32632446c0.3506775 -0.20111084 0.52474976 -0.40094757 0.52474976 -0.6513901l0 -5.5690384c0 -0.6273575 0.20056152 -1.1282272 0.6256561 -1.5304489c0.42510986 -0.40094757 0.92588806 -0.57675934 1.4758606 -0.57675934c0.60043335 0 1.1264496 0.20111084 1.5767822 0.6273575c0.45031738 0.4515381 0.67485046 0.9283829 0.67485046 1.4798508l0 5.5690384c0 0.29976654 0.17533875 0.5261688 0.5007782 0.7019806c0.349411 0.17581177 0.72532654 0.27573395 1.1504211 0.27573395c0.45031738 0 0.8501892 -0.09992218 1.1756439 -0.27573395c0.35066223 -0.17581177 0.52474976 -0.40221405 0.52474976 -0.7019806l0 -5.5943375c0 -1.304039 -0.45033264 -2.4322662 -1.3497162 -3.360649c-0.8766937 -0.95368195 -1.9261932 -1.4305267 -3.1030884 -1.4305267z" fill-rule="evenodd"/><path fill="#ffffff" d="m213.76537 98.861275c0.60043335 0 1.1516724 0.20111084 1.602005 0.6526489c0.45031738 0.42624664 0.67485046 0.90309143 0.67485046 1.4545593l0 1.9060974c0 0.55146027 -0.22453308 1.0536041 -0.67485046 1.5051422c-0.45033264 0.42624664 -1.0015717 0.65265656 -1.602005 0.65265656c-0.6244049 0 -1.1504059 -0.22640991 -1.6007385 -0.65265656c-0.45031738 -0.4515381 -0.67485046 -0.95368195 -0.67485046 -1.5051422l0 -1.9060974c0 -0.5514679 0.22453308 -1.0536041 0.67485046 -1.4798508c0.45033264 -0.42624664 0.9763336 -0.6273575 1.6007385 -0.6273575zm0 -2.7092667c-1.5250549 0 -2.8507996 0.4768448 -3.952011 1.4305267c-1.0999603 0.95241547 -1.6511993 2.0819092 -1.6511993 3.360649l0 1.9313965c0 1.2800064 0.551239 2.4082336 1.6764221 3.3859482c1.1251831 0.9789734 2.4269714 1.4558182 3.9267883 1.4558182c1.5010834 0 2.8028717 -0.4768448 3.9280548 -1.4558182c1.1251831 -0.97771454 1.6764221 -2.1059418 1.6764221 -3.3859482l0 -1.9313965c0 -1.304039 -0.551239 -2.4322662 -1.6764221 -3.360649c-1.1251831 -0.95368195 -2.4269714 -1.4305267 -3.9280548 -1.4305267z" fill-rule="evenodd"/><path fill="#ffffff" d="m225.54826 89.78107c-0.5007782 0 -0.90065 0.07588959 -1.2008667 0.25170135c-0.30021667 0.17454529 -0.45031738 0.40094757 -0.45031738 0.6766815l0 15.828072c0 0.2504425 0.17532349 0.4755783 0.47554016 0.67668915c0.3254547 0.20110321 0.72532654 0.3010254 1.1756439 0.3010254c0.45033264 0 0.85020447 -0.09992218 1.1756439 -0.32632446c0.3506775 -0.20111084 0.52601624 -0.42624664 0.52601624 -0.6513901l0 -15.828072c0 -0.27573395 -0.17533875 -0.50213623 -0.50079346 -0.6766815c-0.32543945 -0.17581177 -0.7253113 -0.25170135 -1.2008667 -0.25170135z" fill-rule="evenodd"/><path fill="#ffffff" d="m237.38036 98.861275c0.6004486 0 1.1264496 0.20111084 1.5767822 0.6526489c0.45031738 0.42624664 0.7000885 0.90309143 0.7000885 1.4545593l0 1.9060974c0 0.55146027 -0.24977112 1.0536041 -0.7000885 1.5051422c-0.45033264 0.42624664 -0.9763336 0.65265656 -1.5767822 0.65265656c-0.6256561 0 -1.1756287 -0.22640991 -1.6007385 -0.65265656c-0.45031738 -0.4515381 -0.67485046 -0.95368195 -0.67485046 -1.5051422l0 -1.9060974c0 -0.5514679 0.22453308 -1.0536041 0.67485046 -1.4798508c0.42510986 -0.42624664 0.9750824 -0.6273575 1.6007385 -0.6273575zm0 -2.7092667c-1.5502777 0 -2.8507996 0.4768448 -3.952011 1.4305267c-1.1251831 0.95241547 -1.6764221 2.0819092 -1.6764221 3.360649l0 1.9313965c0 1.2800064 0.5751953 2.4082336 1.7016449 3.3859482c1.0999603 0.9789734 2.425705 1.4558182 3.9267883 1.4558182c1.5010986 0 2.8016205 -0.4768448 3.9280548 -1.4558182c1.0999603 -0.97771454 1.6764221 -2.1059418 1.6764221 -3.3859482l0 -1.9313965c0 -1.304039 -0.5764618 -2.4322662 -1.6764221 -3.360649c-1.1264343 -0.95368195 -2.4269562 -1.4305267 -3.9280548 -1.4305267z" fill-rule="evenodd"/><path fill="#ffffff" d="m251.93964 98.00878c0.5752106 0 1.0255432 0.20110321 1.3762054 0.57675934c0.3254547 0.4009552 0.49952698 0.87779236 0.49952698 1.4545517l0 0.50214386c0 0.62734985 -0.17407227 1.1535187 -0.49952698 1.5304413c-0.32543945 0.37565613 -0.7757721 0.57675934 -1.3509674 0.57675934c-0.5752106 0 -1.0255432 -0.20110321 -1.3509827 -0.6020584c-0.32543945 -0.40221405 -0.5007782 -0.9030838 -0.5007782 -1.5304413l0 -0.4768448c0 -0.57675934 0.17533875 -1.0788956 0.5007782 -1.4545517c0.32543945 -0.40094757 0.7757721 -0.57675934 1.3257446 -0.57675934zm-1.025528 9.455864c0.39987183 0.050590515 0.6748657 0.07588959 0.8501892 0.10118103c0.15011597 0 0.42510986 0.049331665 0.7757721 0.09992218c0.37591553 0.050598145 0.6256714 0.09992218 0.80101013 0.17581177c0.15010071 0.07463074 0.349411 0.17581177 0.54997253 0.27573395c0.22453308 0.09992218 0.37464905 0.25043488 0.47555542 0.42624664c0.074417114 0.15052032 0.12487793 0.35162354 0.12487793 0.57676697c0 0.50213623 -0.24975586 0.9030838 -0.7000885 1.2041168c-0.47555542 0.27573395 -1.0507507 0.42624664 -1.7521057 0.42624664c-0.7253113 0 -1.3005219 -0.1505127 -1.8000336 -0.42624664c-0.47555542 -0.30103302 -0.72657776 -0.72727966 -0.72657776 -1.2294159c0 -0.7019806 0.47555542 -1.2534485 1.4014282 -1.6303635zm5.5287933 -12.215721c-0.52601624 0 -1.050766 0.5274277 -1.576767 1.6063309c-0.82496643 -0.47683716 -1.8000488 -0.7032471 -2.9517212 -0.7032471c-1.5010834 0 -2.7006989 0.3769226 -3.6265717 1.1041946c-0.95111084 0.7019806 -1.4014435 1.6556625 -1.4014435 2.7838898l0 0.50214386c0 1.2534409 0.52601624 2.2577133 1.6007385 3.010292c-0.875412 0.5261688 -1.3257446 1.1282272 -1.3257446 1.8302078c0 0.7032471 0.37590027 1.2041168 1.1012115 1.5051422c-1.2752838 0.57676697 -1.9009552 1.4305267 -1.9009552 2.5081635c0 1.028305 0.5499878 1.8314667 1.6511993 2.433525c1.0999603 0.6020584 2.4761658 0.87779236 4.0769043 0.87779236c1.5755005 0 2.9025116 -0.3010254 4.002472 -0.9283829c1.0759888 -0.6020584 1.6259766 -1.5291748 1.6259766 -2.7585907c0 -0.8284683 -0.2749939 -1.4798508 -0.79974365 -1.981987c-0.551239 -0.5008774 -1.1769104 -0.8525009 -1.951416 -1.0030136c-0.7505493 -0.17581177 -1.5010834 -0.3010254 -2.2768555 -0.37691498c-0.7757721 -0.09992218 -1.4253998 -0.19984436 -1.951416 -0.3250656c-0.54997253 -0.1264801 -0.79974365 -0.32632446 -0.79974365 -0.5780258c0 -0.17454529 0.09965515 -0.32505798 0.30023193 -0.4755783c0.49951172 0.12522125 1.0747223 0.19984436 1.6751556 0.19984436c1.5010834 0 2.727188 -0.37565613 3.7022552 -1.1029282c0.95111084 -0.7525711 1.4266663 -1.706253 1.4266663 -2.8344803l0 -0.50214386c0 -0.87779236 -0.30023193 -1.6556625 -0.9006653 -2.307045c0.175354 -0.17581177 0.57522583 -0.4768448 1.2008972 -0.87779236c0.27496338 -0.20111084 0.42507935 -0.42624664 0.42507935 -0.677948c0 -0.19984436 -0.12487793 -0.42624664 -0.375885 -0.6273575c-0.22454834 -0.19984436 -0.5499878 -0.3010254 -0.9498596 -0.3010254z" fill-rule="evenodd"/><path fill="#ffffff" d="m263.3214 91.1104c-0.5499878 0 -1.0003052 0.12522125 -1.3497314 0.40222168c-0.375885 0.25043488 -0.551239 0.57675934 -0.551239 0.95241547c0 0.35162354 0.175354 0.6526489 0.551239 0.9283829c0.34942627 0.27573395 0.79974365 0.40094757 1.3497314 0.40094757c0.47555542 0 0.87542725 -0.12521362 1.2261047 -0.40094757c0.3506775 -0.27573395 0.50076294 -0.57675934 0.50076294 -0.9283829c0 -0.37565613 -0.15008545 -0.7019806 -0.50076294 -0.95241547c-0.3506775 -0.27700043 -0.7505493 -0.40222168 -1.2261047 -0.40222168zm0 5.1921234c-0.4743042 0 -0.8501892 0.07589722 -1.1504211 0.25170135c-0.30020142 0.17581177 -0.45031738 0.4009552 -0.45031738 0.7019806l0 9.281319c0 0.2504425 0.15011597 0.4755783 0.45031738 0.67668915c0.32543945 0.20110321 0.70010376 0.3010254 1.1504211 0.3010254c0.42636108 0 0.8009949 -0.09992218 1.1264343 -0.32632446c0.32546997 -0.20111084 0.47555542 -0.42624664 0.47555542 -0.6513901l0 -9.281319c0 -0.3010254 -0.15008545 -0.5261688 -0.45031738 -0.7019806c-0.30023193 -0.17580414 -0.701355 -0.25170135 -1.1516724 -0.25170135z" fill-rule="evenodd"/><path fill="#ffffff" d="m274.80408 98.56024c0.6256714 0 1.1756592 0.17581177 1.6007385 0.50214386c0.4503479 0.3010254 0.67614746 0.72727203 0.67614746 1.2534409c0 0.22640991 -0.050476074 0.3769226 -0.175354 0.4768448c-0.10092163 0.07588959 -0.30020142 0.09992218 -0.5751953 0.09992218l-3.777954 0l0 -0.60079956c0 -0.5274277 0.22579956 -0.9283829 0.67611694 -1.2547073c0.45031738 -0.30103302 0.97506714 -0.4768448 1.5755005 -0.4768448zm0.07443237 -2.4082336c-1.5755005 0 -2.901245 0.4768448 -4.002472 1.4052277c-1.0999451 0.9283829 -1.6499329 2.0313187 -1.6499329 3.311325l0 2.0060196c0 1.4545517 0.5751953 2.6333694 1.7256165 3.5124283c1.1756287 0.87779236 2.6767273 1.3293381 4.5272217 1.3293381c1.2765503 0 2.3765259 -0.22640991 3.2279663 -0.65265656c0.87542725 -0.42624664 1.3257446 -0.8524933 1.3257446 -1.304039c0 -0.27573395 -0.12487793 -0.57675934 -0.375885 -0.87779236c-0.24975586 -0.3010254 -0.5499878 -0.47683716 -0.9006653 -0.47683716c-0.1993103 0 -0.60043335 0.1505127 -1.250061 0.45154572c-0.6256714 0.3010254 -1.2765503 0.45154572 -1.926178 0.45154572c-0.9258728 0 -1.6511841 -0.20111084 -2.2011719 -0.6273575c-0.551239 -0.4009552 -0.8262329 -0.95368195 -0.8262329 -1.6303635l0 -0.35162354l5.2538147 0c0.34939575 0 0.6496277 -0.024032593 0.87542725 -0.049331665c0.22451782 -0.025291443 0.47555542 -0.10118866 0.7253113 -0.22640228c0.2749939 -0.12522125 0.47555542 -0.35035706 0.60043335 -0.6513901c0.12487793 -0.3010254 0.20056152 -0.677948 0.20056152 -1.1547852c0 -1.2787476 -0.526001 -2.332344 -1.5767822 -3.184845c-1.0255127 -0.8524933 -2.3008118 -1.2800064 -3.752716 -1.2800064z" fill-rule="evenodd"/><path fill="#ffffff" d="m288.66327 96.15201c-1.6019897 0 -2.7776184 0.35162354 -3.5281677 1.0536041c-0.7253113 0.72727966 -1.0999451 1.5557404 -1.0999451 2.533455c0 0.7032471 0.19927979 1.2800064 0.62564087 1.7315521c0.42510986 0.45154572 0.9246216 0.7766037 1.550293 0.95241547c0.60043335 0.20111084 1.2008667 0.37691498 1.776062 0.50213623c0.60043335 0.1505127 1.1012268 0.32632446 1.5263367 0.5261688c0.42507935 0.22640228 0.6496277 0.50213623 0.6496277 0.87779236c0 0.6526489 -0.6496277 0.978981 -1.926178 0.978981c-0.62442017 0 -1.1996155 -0.07588959 -1.6751709 -0.25170135c-0.45031738 -0.15052032 -0.85147095 -0.3250656 -1.1264648 -0.4755783c-0.30020142 -0.1505127 -0.52474976 -0.22640228 -0.7253113 -0.22640228c-0.30020142 0 -0.5499573 0.1505127 -0.77575684 0.4515381c-0.22454834 0.30103302 -0.34942627 0.6020584 -0.34942627 0.87779236c0 0.5527344 0.4503479 1.0042801 1.3762207 1.4305267c0.89938354 0.40094757 2.0258179 0.6020584 3.301117 0.6020584c1.5010986 0 2.6767273 -0.30103302 3.5029602 -0.9283829c0.8501892 -0.6273575 1.250061 -1.4798508 1.250061 -2.584053c0 -0.62734985 -0.15011597 -1.1788177 -0.45031738 -1.6303635c-0.30023193 -0.45154572 -0.6748657 -0.7778702 -1.1251831 -1.003006c-0.45031738 -0.20111084 -0.9258728 -0.4009552 -1.4506226 -0.5514679c-0.5260315 -0.17581177 -1.0255432 -0.30103302 -1.4758606 -0.3769226c-0.4503479 -0.09991455 -0.85147095 -0.2251358 -1.1516724 -0.40094757c-0.30023193 -0.17581177 -0.4743042 -0.3769226 -0.4743042 -0.6526489c0 -0.2504425 0.17407227 -0.4768448 0.4743042 -0.7019806c0.30020142 -0.20111084 0.7505188 -0.3263321 1.3509827 -0.3263321c0.526001 0 1.1011963 0.10118866 1.7016296 0.30103302c0.6256714 0.20111084 1.0003052 0.3010254 1.1251831 0.3010254c0.3506775 0 0.6509094 -0.17580414 0.87542725 -0.5261688c0.22579956 -0.37691498 0.3506775 -0.677948 0.3506775 -0.9536743c0 -0.4009552 -0.42510986 -0.7778702 -1.2513123 -1.0789032c-0.8502197 -0.30103302 -1.8013306 -0.45154572 -2.85083 -0.45154572z" fill-rule="evenodd"/><path fill="#ffffff" d="m208.23784 35.727314l0.349411 0.025299072l0.32543945 0.04932785l0.3254547 0.07588959l0.30021667 0.09992218l0.30021667 0.12521744l0.30021667 0.17581177l0.24975586 0.17581177l0.2749939 0.25043488l0.22579956 0.22640228l0.20056152 0.2504387l0.17407227 0.27573395l0.15011597 0.3010292l0.10090637 0.3010292l0.074417114 0.3010292l0.050460815 0.32632446l0 0.32632446l0 0.32632828l-0.050460815 0.35035706l-0.074417114 0.3010292l-0.10090637 0.3010292l-0.15011597 0.3010292l-0.17407227 0.27573395l-0.20056152 0.25170135l-0.22579956 0.25043488l-0.2749939 0.2504387l-0.24975586 0.20110703l-0.30021667 0.1505127l-0.30021667 0.15051651l-0.30021667 0.12521744l-0.3254547 0.07588959l-0.32543945 0.024032593l-0.349411 0.025295258l-0.37590027 -0.025295258l-0.349411 -0.024032593l-0.3506775 -0.07588959l-0.32543945 -0.12521744l-0.30023193 -0.12521744l-0.30021667 -0.17581177l-0.27497864 -0.20110703l-0.24977112 -0.2504387l-0.25102234 -0.25043488l-0.22451782 -0.25170135l-0.17533875 -0.27573395l-0.15011597 -0.3010292l-0.09965515 -0.3010292l-0.075683594 -0.3010292l-0.049194336 -0.35035706l-0.025222778 -0.32632828l0.025222778 -0.32632446l0.049194336 -0.32632446l0.075683594 -0.32632828l0.09965515 -0.27573013l0.15011597 -0.3010292l0.17533875 -0.27573395l0.22451782 -0.2504387l0.25102234 -0.25043488l0.24977112 -0.22640228l0.30021667 -0.17581177l0.30021667 -0.17581177l0.30021667 -0.12521744l0.32543945 -0.12522125l0.3254547 -0.050590515l0.349411 -0.04932785z" fill-rule="evenodd"/><path fill="#ffffff" d="m208.23784 47.716633l0.2749939 0.025295258l0.24975586 0l0.25102234 0.05059433l0.24975586 0.04932785l0.22453308 0.07588959l0.20056152 0.09992218l0.22453308 0.101184845l0.20057678 0.12522125l0.17533875 0.1505127l0.17532349 0.15051651l0.12489319 0.17581177l0.12487793 0.17454529l0.09963989 0.20110703l0.050460815 0.20110703l0.050460815 0.22513962l0 0.2264061l0 31.27797l0 0.20110321l-0.050460815 0.19984436l-0.050460815 0.22640228l-0.09963989 0.20111084l-0.12487793 0.17454529l-0.12489319 0.17581177l-0.15010071 0.17581177l-0.17533875 0.17581177l-0.20056152 0.12521362l-0.22453308 0.15052032l-0.22579956 0.09992218l-0.22453308 0.10118103l-0.24975586 0.07463074l-0.25102234 0.050590515l-0.24975586 0.025299072l-0.2749939 0.024024963l-0.2749939 -0.024024963l-0.27624512 -0.025299072l-0.22453308 -0.050590515l-0.24975586 -0.07463074l-0.22579956 -0.10118103l-0.22453308 -0.09992218l-0.20056152 -0.15052032l-0.20056152 -0.12521362l-0.17408752 -0.17581177l-0.12612915 -0.17581177l-0.15011597 -0.17581177l-0.09965515 -0.19984436l-0.074417114 -0.20110321l-0.075683594 -0.20111084l-0.025238037 -0.19984436l-0.025222778 -0.20110321l0 -31.27797l0.025222778 -0.2264061l0.025238037 -0.22513962l0.075683594 -0.20110703l0.074417114 -0.20110703l0.09965515 -0.17454529l0.15011597 -0.17581177l0.15010071 -0.15051651l0.17533875 -0.12521744l0.20056152 -0.15051651l0.20056152 -0.101184845l0.22453308 -0.09992218l0.22579956 -0.07588959l0.22453308 -0.04932785l0.24975586 -0.05059433l0.25102234 0z" fill-rule="evenodd"/><path fill="#ffffff" d="m188.42476 47.716633l10.307037 0l0.22453308 0.025295258l0.20056152 0.025299072l0.20056152 0.050590515l0.1993103 0.07462692l0.17533875 0.09992218l0.15010071 0.1264801l0.15011597 0.15051651l0.15011597 0.1505127l0.09963989 0.1745491l0.10092163 0.1505127l0.09965515 0.20111084l0.050445557 0.17580795l0.07443237 0.17581177l0.025222778 0.19984436l0.025222778 0.20110703l0 0.20110703l0 0.22513962l-0.025222778 0.20111084l-0.025222778 0.19984055l-0.049194336 0.2264061l-0.075683594 0.17581177l-0.09965515 0.19984055l-0.10092163 0.17581177l-0.09963989 0.17581177l-0.15011597 0.17581177l-0.12487793 0.15051651l-0.17533875 0.12521744l-0.17533875 0.09992218l-0.1993103 0.101184845l-0.20056152 0.04932785l-0.20056152 0.025295258l-0.22453308 0.025299072l-10.307037 0l0 28.870998l0 0.2251358l-0.049194336 0.22640228l-0.075683594 0.19984436l-0.09965515 0.20111084l-0.09965515 0.20110321l-0.15010071 0.17455292l-0.17533875 0.1505127l-0.17533875 0.1505127l-0.22579956 0.1264801l-0.19929504 0.12522125l-0.25102234 0.09992218l-0.22453308 0.07462311l-0.24977112 0.050598145l-0.25102234 0.050590515l-0.24975586 0.025299072l-0.2749939 0.024024963l-0.24975586 -0.024024963l-0.25102234 -0.025299072l-0.22453308 -0.050590515l-0.2257843 -0.050598145l-0.22453308 -0.07462311l-0.20057678 -0.09992218l-0.22453308 -0.12522125l-0.17533875 -0.1264801l-0.17532349 -0.1505127l-0.15011597 -0.17454529l-0.12487793 -0.17581177l-0.12487793 -0.17581177l-0.075683594 -0.20111084l-0.07443237 -0.2251358l-0.025222778 -0.20111084l0 -0.2251358l0 -40.961502l0 -0.7019806l0.050460815 -0.7019806l0.09963989 -0.7032471l0.09965515 -0.65138626l0.15011597 -0.677948l0.20056152 -0.67668533l0.22453308 -0.62735367l0.25102234 -0.65138626l0.2749939 -0.6020584l0.30021667 -0.6020622l0.349411 -0.57675934l0.35066223 -0.57802963l0.37591553 -0.5261669l0.3746338 -0.52617073l0.4250946 -0.50213623l0.45033264 -0.47684097l0.45031738 -0.47684097l0.47555542 -0.42624664l0.49952698 -0.4009514l0.52601624 -0.3769188l0.54997253 -0.35035896l0.551239 -0.35162163l0.5752106 -0.32632637l0.60043335 -0.27573204l0.6244049 -0.25043678l0.6256561 -0.22640419l0.6256561 -0.1745472l0.65089417 -0.1505146l0.6496277 -0.12648201l0.65089417 -0.09992218l0.6496277 -0.050592422l0.6761322 0l1.8504944 0l0.25102234 0l0.24975586 0.050592422l0.22453308 0.05059433l0.22579956 0.07462311l0.20056152 0.12521935l0.1993103 0.10118675l0.20056152 0.17580986l0.15010071 0.1745472l0.15011597 0.17581177l0.12487793 0.20110703l0.09965515 0.20110893l0.075683594 0.22513962l0.074417114 0.20110703l0.050460815 0.22513962l0.025222778 0.25043678l0 0.22640419l0 0.22513962l-0.025222778 0.22640419l-0.050460815 0.20110893l-0.074417114 0.19984245l-0.075683594 0.22640419l-0.09965515 0.19984245l-0.12487793 0.17581177l-0.15011597 0.17581177l-0.15010071 0.17581177l-0.20056152 0.17580986l-0.1993103 0.12521935l-0.20056152 0.09992027l-0.22579956 0.07588959l-0.22453308 0.074625015l-0.24975586 0.025297165l-0.25102234 0.025297165l-1.250061 0l-0.47555542 0l-0.45033264 0.025295258l-0.45031738 0.074625015l-0.42510986 0.07588959l-0.4250946 0.09992218l-0.39987183 0.12521744l-0.42634583 0.12521935l-0.37464905 0.17581177l-0.39987183 0.20110893l-0.37590027 0.19984055l-0.3746338 0.20110703l-0.3254547 0.2504387l-0.3506775 0.25170135l-0.32543945 0.25043488l-0.30021667 0.27573395l-0.2749939 0.27573013l-0.30021667 0.3010292l-0.24975586 0.32632828l-0.2749939 0.32632446l-0.2257843 0.32632828l-0.22453308 0.35035706l-0.20057678 0.35162354l-0.19929504 0.3756523l-0.17533875 0.3769188l-0.15011597 0.4009514l-0.15010071 0.3769188l-0.10092163 0.4009514l-0.09963989 0.4009514l-0.07443237 0.42624664l-0.050445557 0.40221786l-0.025238037 0.42624664l-0.025222778 0.42624664z" fill-rule="evenodd"/><path fill="#ffffff" d="m154.05365 81.42813l-0.074417114 0.22640228l-0.075683594 0.20111084l-0.12487793 0.17454529l-0.12487793 0.17581177l-0.17533875 0.17581177l-0.17533875 0.17581177l-0.20056152 0.12521362l-0.1993103 0.15052032l-0.22579956 0.09992218l-0.22453308 0.10118103l-0.24975586 0.07463074l-0.25102234 0.050590515l-0.24975586 0.025299072l-0.2749939 0.024024963l-0.2749939 -0.024024963l-0.25102234 -0.025299072l-0.27497864 -0.050590515l-0.24975586 -0.07463074l-0.20057678 -0.10118103l-0.22453308 -0.09992218l-0.20056152 -0.15052032l-0.20056152 -0.12521362l-0.15011597 -0.17581177l-0.17407227 -0.17581177l-0.12614441 -0.17581177l-0.09965515 -0.19984436l-0.074417114 -0.20110321l-0.075683594 -0.20111084l-0.025222778 -0.19984436l0 -0.20110321l0 -31.27797l0 -0.2264061l0.025222778 -0.22513962l0.075683594 -0.20110703l0.074417114 -0.20110703l0.09965515 -0.17454529l0.15011597 -0.17581177l0.15010071 -0.15051651l0.17533875 -0.12521744l0.20056152 -0.15051651l0.20057678 -0.101184845l0.19929504 -0.09992218l0.22579956 -0.07588959l0.24975586 -0.04932785l0.24975586 -0.05059433l0.25102234 0l0.2749939 -0.025295258l0.22453308 0.025295258l0.22579956 0.025299072l0.22453308 0.025295258l0.2257843 0.04932785l0.1993103 0.07588959l0.20056152 0.09992218l0.20056152 0.101184845l0.17408752 0.15051651l0.20056152 0.12521744l0.15010071 0.15051651l0.12489319 0.17581177l0.12487793 0.17454529l0.075683594 0.20110703l0.050445557 0.20110703l0.049209595 0.22513962l0 0.2264061l0 2.5081558l0.2257843 -0.3010292l0.39987183 -0.5274353l0.45033264 -0.50086975l0.47555542 -0.47684097l0.5247345 -0.47684097l0.5752106 -0.45154572l0.60043335 -0.4515419l0.3254547 -0.22513962l0.32543945 -0.20111084l0.3506775 -0.17580795l0.3746338 -0.17581177l0.3506775 -0.1745491l0.37464905 -0.1505127l0.37590027 -0.12648392l0.39987183 -0.12521744l0.39985657 -0.09992218l0.42510986 -0.07462311l0.4250946 -0.07588959l0.42636108 -0.07462692l0.45031738 -0.05059433l0.45033264 -0.025295258l0.44906616 -0.025295258l0.47555542 -0.025299072l0.67611694 0.025299072l0.67485046 0.050590515l0.6256714 0.09992218l0.67485046 0.10118866l0.6256714 0.17454529l0.6256561 0.17581177l0.65089417 0.22640228l0.60043335 0.2504387l0.60043335 0.3010292l0.5752106 0.3010292l0.5752106 0.35162354l0.52474976 0.35035706l0.526001 0.4009514l0.49952698 0.40221405l0.47555542 0.45154572l0.47555542 0.4515419l0.4250946 0.50087357l0.4250946 0.50213623l0.39987183 0.5514679l0.3506775 0.5274315l0.35066223 0.57676315l0.34942627 0.6020584l0.30021667 0.6020584l0.27497864 0.626091l0.25102234 0.6273575l0.22453308 0.677948l0.17533875 0.6766815l0.17533875 0.677948l0.12487793 0.67668533l0.075683594 0.7019806l0.049194336 0.72727585l0.025238037 0.7032471l0 19.689602l-0.025238037 0.25043488l-0.049194336 0.25170135l-0.050445557 0.2251358l-0.09965515 0.22640228l-0.12614441 0.19984436l-0.17407227 0.17581177l-0.17533875 0.17581177l-0.20056152 0.1505127l-0.22453308 0.12522125l-0.20057678 0.10118866l-0.22453308 0.07462311l-0.2257843 0.07462311l-0.22453308 0.07588959l-0.22579956 0.025299072l-0.22453308 0.025299072l-0.25102234 0.024024963l-0.22453308 -0.024024963l-0.20056152 -0.025299072l-0.22453308 -0.025299072l-0.2257843 -0.07588959l-0.1993103 -0.07462311l-0.22579956 -0.07462311l-0.20056152 -0.10118866l-0.22453308 -0.12522125l-0.20056152 -0.1505127l-0.17533875 -0.17581177l-0.15010071 -0.17581177l-0.12489319 -0.19984436l-0.09963989 -0.22640228l-0.07569885 -0.2251358l-0.023956299 -0.25170135l-0.025238037 -0.25043488l0 -19.664307l0 -0.42751312l-0.050445557 -0.42624664l-0.050460815 -0.42624664l-0.074417114 -0.42624664l-0.09965515 -0.42625046l-0.12487793 -0.4009514l-0.15011597 -0.4275093l-0.17533875 -0.42625046l-0.17533875 -0.40094757l-0.20056152 -0.4009514l-0.22453308 -0.3769188l-0.25102234 -0.37565613l-0.24975586 -0.35162354l-0.24977112 -0.35161972l-0.27497864 -0.3250618l-0.30021667 -0.32632828l-0.3254547 -0.3010292l-0.32543945 -0.3010292l-0.32543945 -0.27573013l-0.34942627 -0.27573395l-0.35066223 -0.2264061l-0.37464905 -0.25043488l-0.40112305 -0.2264061l-0.39987183 -0.19984055l-0.39987183 -0.17581177l-0.42636108 -0.17581177l-0.39987183 -0.12521744l-0.45031738 -0.09992218l-0.4250946 -0.101184845l-0.45033264 -0.07462692l-0.45033264 -0.025295258l-0.45031738 0l-0.39987183 0l-0.39987183 0.025295258l-0.37590027 0.04932785l-0.39987183 0.05059433l-0.37590027 0.09992218l-0.39987183 0.101184845l-0.39987183 0.12521744l-0.37590027 0.15051651l-0.3746338 0.1505127l-0.37590027 0.17581177l-0.349411 0.19984436l-0.3506775 0.22640228l-0.3254547 0.22513962l-0.32543945 0.25170135l-0.30021667 0.27573395l-0.30021667 0.27573395l-0.2989502 0.32632446l-0.27626038 0.3010292l-0.24975586 0.35035706l-0.24975586 0.32632828l-0.25102234 0.3769188l-0.1993103 0.4009514l-0.22579956 0.4009514l-0.19929504 0.4009514l-0.17533875 0.4275093l-0.15011597 0.45154572l-0.12487793 0.4515419l-0.10090637 0.4755783l-0.09965515 0.50213623l-0.050460815 0.50213623l-0.049194336 0.50087357l0 0.55273056l0 19.664307l0 0.20110321z" fill-rule="evenodd"/><path fill="#ffffff" d="m139.57007 35.727314l0.349411 0.025299072l0.32543945 0.04932785l0.3254547 0.07588959l0.32543945 0.09992218l0.30021667 0.12521744l0.2749939 0.17581177l0.27497864 0.17581177l0.24977112 0.25043488l0.2257843 0.22640228l0.22453308 0.2504387l0.15011597 0.27573395l0.15010071 0.3010292l0.12487793 0.3010292l0.07569885 0.3010292l0.050445557 0.32632446l0 0.32632446l0 0.32632828l-0.050445557 0.35035706l-0.07569885 0.3010292l-0.12487793 0.3010292l-0.15010071 0.3010292l-0.15011597 0.27573395l-0.19929504 0.25170135l-0.25102234 0.25043488l-0.24977112 0.2504387l-0.27497864 0.20110703l-0.2749939 0.1505127l-0.30021667 0.15051651l-0.32543945 0.12521744l-0.3254547 0.07588959l-0.32543945 0.024032593l-0.349411 0.025295258l-0.3506775 -0.025295258l-0.3506775 -0.024032593l-0.349411 -0.07588959l-0.32543945 -0.12521744l-0.30021667 -0.12521744l-0.30021667 -0.17581177l-0.2749939 -0.20110703l-0.2749939 -0.2504387l-0.2257843 -0.25043488l-0.22453308 -0.25170135l-0.17533875 -0.27573395l-0.15011597 -0.3010292l-0.12487793 -0.3010292l-0.050460815 -0.3010292l-0.074417114 -0.35035706l0 -0.32632828l0 -0.32632446l0.074417114 -0.32632446l0.050460815 -0.32632828l0.12487793 -0.27573013l0.15011597 -0.3010292l0.17533875 -0.27573395l0.22453308 -0.2504387l0.2257843 -0.25043488l0.2749939 -0.22640228l0.2749939 -0.17581177l0.30021667 -0.17581177l0.32543945 -0.12521744l0.30021667 -0.12522125l0.349411 -0.050590515l0.3506775 -0.04932785z" fill-rule="evenodd"/><path fill="#ffffff" d="m139.57007 47.716633l0.27497864 0.025295258l0.24977112 0l0.27497864 0.05059433l0.22579956 0.04932785l0.22453308 0.07588959l0.2257843 0.09992218l0.1993103 0.101184845l0.22579956 0.12522125l0.17533875 0.1505127l0.15010071 0.15051651l0.15011597 0.17581177l0.09963989 0.17454529l0.09965515 0.20110703l0.050460815 0.20110703l0.050460815 0.22513962l0.023956299 0.2264061l0 31.27797l-0.023956299 0.20110321l-0.050460815 0.19984436l-0.050460815 0.22640228l-0.09965515 0.20111084l-0.09963989 0.17454529l-0.12489319 0.17581177l-0.17532349 0.17581177l-0.17533875 0.17581177l-0.20057678 0.12521362l-0.19929504 0.15052032l-0.22579956 0.09992218l-0.24975586 0.10118103l-0.22579956 0.07463074l-0.24975586 0.050590515l-0.2749939 0.025299072l-0.27497864 0.024024963l-0.25102234 -0.024024963l-0.2749939 -0.025299072l-0.24975586 -0.050590515l-0.22579956 -0.07463074l-0.24975586 -0.10118103l-0.20057678 -0.09992218l-0.19929504 -0.15052032l-0.20056152 -0.12521362l-0.17533875 -0.17581177l-0.15011597 -0.17581177l-0.12487793 -0.17581177l-0.09965515 -0.19984436l-0.09963989 -0.20110321l-0.050460815 -0.20111084l-0.050460815 -0.19984436l0 -0.20110321l0 -31.27797l0 -0.2264061l0.050460815 -0.22513962l0.050460815 -0.20110703l0.09963989 -0.20110703l0.09965515 -0.17454529l0.12487793 -0.17581177l0.17533875 -0.15051651l0.17533875 -0.12521744l0.17533875 -0.15051651l0.19929504 -0.101184845l0.22579956 -0.09992218l0.22453308 -0.07588959l0.22579956 -0.04932785l0.24975586 -0.05059433l0.2749939 0z" fill-rule="evenodd"/><path fill="#ffffff" d="m297.7682 35.65269l0.32543945 0.024032593l0.3506775 0.050590515l0.32418823 0.07462692l0.30023193 0.101184845l0.30020142 0.12521744l0.30023193 0.17581177l0.25100708 0.19984436l0.2749939 0.22640228l0.22451782 0.22513962l0.20059204 0.27700043l0.17532349 0.25043488l0.15011597 0.3010292l0.09963989 0.3010292l0.075683594 0.3010292l0.049194336 0.32632828l0 0.32505798l0 0.35162354l-0.049194336 0.32632828l-0.075683594 0.3010292l-0.09963989 0.3010292l-0.15011597 0.3010292l-0.17532349 0.27573013l-0.20059204 0.2504387l-0.22451782 0.25170135l-0.24975586 0.25043488l-0.27624512 0.19984436l-0.30023193 0.17581177l-0.2749939 0.12521744l-0.32543945 0.1264801l-0.32418823 0.07462692l-0.32543945 0.025295258l-0.3506775 0.025299072l-0.3746338 -0.025299072l-0.3506775 -0.025295258l-0.32543945 -0.07462692l-0.34942627 -0.1264801l-0.30020142 -0.12521744l-0.30023193 -0.17581177l-0.2749939 -0.19984436l-0.27624512 -0.25043488l-0.22451782 -0.2264061l-0.22579956 -0.27573395l-0.17407227 -0.27573013l-0.12615967 -0.3010292l-0.12487793 -0.3010292l-0.074401855 -0.3010292l-0.050476074 -0.32632828l-0.02520752 -0.35162354l0.02520752 -0.32505798l0.050476074 -0.32632828l0.074401855 -0.3010292l0.12487793 -0.3010292l0.12615967 -0.3010292l0.1993103 -0.25043488l0.20056152 -0.27700043l0.24975586 -0.22513962l0.25100708 -0.22640228l0.2989807 -0.19984436l0.27624512 -0.17581177l0.32418823 -0.12521744l0.32543945 -0.101184845l0.32543945 -0.07462692l0.3506775 -0.050590515z" fill-rule="evenodd"/><path fill="#ffffff" d="m297.7682 47.64201l0.24975586 0.025295258l0.27627563 0.024032593l0.24975586 0.025295258l0.22451782 0.05059433l0.2510376 0.07462311l0.19927979 0.10118866l0.22579956 0.099918365l0.20056152 0.12522125l0.17407227 0.1505127l0.175354 0.15051651l0.15011597 0.17580795l0.09963989 0.17581177l0.10092163 0.20111084l0.049194336 0.19984055l0.02520752 0.2264061l0.025238037 0.22513962l0 31.279228l-0.025238037 0.19984436l-0.02520752 0.22640228l-0.049194336 0.19984436l-0.10092163 0.20111084l-0.09963989 0.17581177l-0.15011597 0.17581177l-0.15011597 0.17581177l-0.17532349 0.17454529l-0.1993103 0.1505127l-0.22579956 0.1264801l-0.22451782 0.12522125l-0.22579956 0.07462311l-0.24975586 0.07588959l-0.24975586 0.049331665l-0.2510376 0.025299072l-0.2749939 0.025291443l-0.2749939 -0.025291443l-0.2749939 -0.025299072l-0.24975586 -0.049331665l-0.22576904 -0.07588959l-0.22454834 -0.07462311l-0.22579956 -0.12522125l-0.20056152 -0.1264801l-0.17407227 -0.1505127l-0.20056152 -0.17454529l-0.15011597 -0.17581177l-0.12487793 -0.17581177l-0.09963989 -0.17581177l-0.075683594 -0.20111084l-0.07443237 -0.2251358l-0.025238037 -0.20111084l0 -0.19984436l0 -31.279228l0 -0.22513962l0.025238037 -0.20110703l0.07443237 -0.22513962l0.075683594 -0.20111084l0.12487793 -0.17581177l0.12487793 -0.17580795l0.15011597 -0.15051651l0.17532349 -0.12521744l0.1993103 -0.15051651l0.20056152 -0.099918365l0.22451782 -0.10118866l0.22579956 -0.07462311l0.22454834 -0.05059433l0.25100708 -0.025295258l0.24975586 -0.024032593z" fill-rule="evenodd"/><path fill="#ffffff" d="m278.50635 81.90497l-0.050445557 0.17581177l-0.07443237 0.15052032l-0.09963989 0.1505127l-0.10092163 0.1505127l-0.12487793 0.12522125l-0.15011597 0.12521362l-0.12487793 0.10118866l-0.17532349 0.07462311l-0.30023193 0.12522125l-0.30020142 0.07588959l-0.32546997 0.07462311l-0.15008545 0l-0.17410278 0l-0.375885 0l-0.3506775 -0.07462311l-0.32418823 -0.10118866l-0.30020142 -0.12521362l-0.27627563 -0.17455292l-0.22451782 -0.22640228l-0.20056152 -0.25043488l-0.17407227 -0.30103302l-7.4297485 -23.301949l-7.3553467 22.925034l-0.12487793 0.35162354l-0.20056152 0.35162354l-0.22451782 0.27572632l-0.30023193 0.2504425l-0.32543945 0.17581177l-0.3746338 0.12521362l-0.40112305 0.07462311l-0.39987183 0.025299072l-0.22454834 0l-0.17532349 0l-0.175354 -0.049324036l-0.17532349 -0.025299072l-0.175354 -0.050590515l-0.15010071 -0.050598145l-0.15010071 -0.07462311l-0.15011597 -0.07462311l-0.15010071 -0.10118866l-0.12487793 -0.12522125l-0.12489319 -0.12521362l-0.09963989 -0.17581177l-0.10092163 -0.17581177l-0.09965515 -0.17581177l-0.09963989 -0.22514343l-11.557114 -31.17804l-0.15010071 -0.27573395l-0.10092163 -0.32632446l-0.049194336 -0.3010292l-0.025222778 -0.30103302l0.025222778 -0.25043488l0.049194336 -0.22640228l0.075683594 -0.2504387l0.12487793 -0.22640228l0.12489319 -0.19984436l0.20056152 -0.20110703l0.19929504 -0.20110703l0.22579956 -0.17581177l0.24975586 -0.14925003l0.25102234 -0.12648392l0.24977112 -0.12521744l0.27497864 -0.09992218l0.24977112 -0.07588959l0.27497864 -0.04932785l0.27626038 -0.025299072l0.27497864 0l0.3254547 0l0.30021667 0.05059433l0.27497864 0.09992218l0.30021667 0.12521744l0.12489319 0.09992218l0.12487793 0.07588959l0.12487793 0.12521744l0.075683594 0.12521744l0.09965515 0.12522125l0.074417114 0.1505127l0.050460815 0.15051651l0.075683594 0.1505127l9.180603 25.610264l7.354065 -23.327248l0.12487793 -0.32632446l0.17532349 -0.27573395l0.20056152 -0.27573013l0.2749939 -0.20111084l0.2749939 -0.1505127l0.3506775 -0.09992218l0.34939575 -0.07588959l0.40115356 -0.024032593l0.34939575 0.024032593l0.32543945 0.05059433l0.32546997 0.099918365l0.30020142 0.12648392l0.15011597 0.07462692l0.12487793 0.099918365l0.15011597 0.12522125l0.09963989 0.1505127l0.10092163 0.15051651l0.09963989 0.1505127l0.07443237 0.20110703l0.050445557 0.17581177l7.0791016 23.602982l9.456818 -26.011215l0.049194336 -0.15051651l0.075683594 -0.12521744l0.07443237 -0.1505127l0.10092163 -0.09992218l0.09963989 -0.10118866l0.12487793 -0.099918365l0.12487793 -0.09992218l0.12490845 -0.07588959l0.12612915 -0.07462692l0.15011597 -0.050590515l0.12487793 -0.05059433l0.17532349 -0.024032593l0.15011597 -0.025295258l0.32418823 -0.025299072l0.25100708 0l0.24978638 0.025299072l0.24975586 0.04932785l0.2749939 0.07588959l0.25100708 0.07462311l0.24975586 0.10118866l0.24975586 0.12521744l0.2510376 0.12521744l0.24975586 0.15051651l0.20056152 0.20110703l0.1993103 0.19984436l0.15011597 0.22640228l0.12487793 0.22513962l0.10089111 0.25170135l0.049224854 0.27573395l0 0.27573013l0 0.35036087l-0.023986816 0.17581177l-0.050445557 0.1505127l-0.050476074 0.17581177l-0.049194336 0.12521744l-0.075683594 0.15051651l-0.050445557 0.101184845z" fill-rule="evenodd"/><path fill="#ffffff" d="m228.04965 78.59491l0.50079346 0l0.49951172 -0.025291443l0.45033264 -0.025299072l0.45031738 -0.050590515l0.45033264 -0.049331665l0.4011383 -0.07588959l0.39985657 -0.050590515l0.3506775 -0.09992218l0.349411 -0.09992218l0.3254547 -0.10118866l0.32543945 -0.12521362l0.2749939 -0.15052032l0.27497864 -0.12521362l0.22579956 -0.1505127l0.24975586 -0.17581177l0.20057678 -0.17455292l0.3746338 -0.37691498l0.32543945 -0.4009552l0.2749939 -0.40221405l0.24975586 -0.45154572l0.15011597 -0.42624664l0.12487793 -0.47557068l0.075683594 -0.4768448l0.050460815 -0.50213623l-0.025222778 -0.57675934l-0.07569885 -0.5514679l-0.09963989 -0.47683716l-0.15011597 -0.4768448l-0.17533875 -0.42624664l-0.22453308 -0.40094757l-0.25102234 -0.35162354l-0.30021667 -0.3263321l-0.32417297 -0.32632446l-0.37591553 -0.3010254l-0.3746338 -0.27573395l-0.4011383 -0.27573395l-0.4250946 -0.25043488l-0.4250946 -0.22640228l-0.47555542 -0.22514343l-0.47555542 -0.20111084l-1.0003052 -0.40094757l-1.0759888 -0.37565613l-1.0999451 -0.35162354c-0.6004486 -0.1505127 -1.200882 -0.32632446 -1.7760773 -0.47683716l-0.5752106 -0.17581177l-0.5752106 -0.19984436l-0.5764618 -0.20110321l-0.52474976 -0.22640991l-0.54997253 -0.2251358l-0.52601624 -0.25043488l-0.49952698 -0.22640991l-0.526001 -0.3010254l-0.47555542 -0.27573395l-0.45033264 -0.32632828l-0.45031738 -0.35035706l-0.39987183 -0.35161972l-0.39987183 -0.37565613l-0.37590027 -0.40221405l-0.37464905 -0.45154572l-0.32543945 -0.45154572l-0.30021667 -0.5261688l-0.22453308 -0.5514641l-0.22579956 -0.6020584l-0.15010071 -0.6273575l-0.09965515 -0.677948l-0.075683594 -0.7525711l-0.023971558 -0.75130844l0.023971558 -0.45154572l0.025222778 -0.45154572l0.050460815 -0.47684097l0.074417114 -0.4515419l0.10092163 -0.45154572l0.09965515 -0.4515419l0.12487793 -0.45154572l0.15010071 -0.4515419l0.17533875 -0.45154572l0.20056152 -0.45154572l0.22453308 -0.42624664l0.24977112 -0.4009514l0.27624512 -0.42624664l0.30021667 -0.40221405l0.32418823 -0.37565613l0.3506775 -0.3769188l0.3746338 -0.35035706l0.37590027 -0.35162354l0.45033264 -0.32632446l0.4250946 -0.32632828l0.47555542 -0.27573013l0.49951172 -0.27573395l0.52601624 -0.27573395l0.5752106 -0.25043488l0.5752106 -0.20110703l0.60043335 -0.20111084l0.6256561 -0.17454529l0.6748657 -0.12648392l0.7013397 -0.099918365l0.7505493 -0.07462692l0.75053406 -0.025295258l0.79974365 -0.025299072l0.45033264 0l0.45031738 0.025299072l0.92588806 0.04932785l0.45031738 0.05059433l0.47555542 0.050590515l0.45033264 0.07462692l0.44906616 0.07588959l0.8514557 0.17581177c0.39987183 0.099918365 0.82496643 0.19984055 1.2248383 0.3010292l0.75053406 0.22513962l0.37590027 0.12521744l0.3254547 0.12521744l0.349411 0.12521744l0.30021667 0.15051651l0.30021667 0.1505127l0.30021667 0.15051651l0.25102234 0.1505127l0.24975586 0.15051651l0.24977112 0.17581177l0.20056152 0.20110703l0.17533875 0.17581177l0.17533875 0.17454529l0.12487793 0.17581177l0.12487793 0.20110703l0.074417114 0.20110703l0.025238037 0.19984436l0.025222778 0.20110703l0 0.17581177l-0.025222778 0.19984436l-0.050460815 0.20110703l-0.074417114 0.20110703l-0.07569885 0.22513962l-0.09963989 0.20111084l-0.12489319 0.25043488l-0.12487793 0.25043488l-0.15010071 0.2264061l-0.17533875 0.22513962l-0.20056152 0.17581177l-0.1993103 0.1505127l-0.22579956 0.12521744l-0.22451782 0.10118866l-0.22579956 0.04932785l-0.24975586 0.025295258l-0.15011597 -0.025295258l-0.15010071 0l-0.12489319 -0.024032593l-0.30021667 -0.101184845l-0.32543945 -0.15051651c-0.22453308 -0.09992218 -0.47555542 -0.19984055 -0.7000885 -0.32632446c-0.4250946 -0.1745491 -0.87542725 -0.37565613 -1.3257446 -0.5261688l-0.50079346 -0.17581177c-0.5751953 -0.17581177 -1.1504059 -0.35162354 -1.7508392 -0.50213623l-0.32543945 -0.07462692l-0.3254547 -0.05059433l-0.349411 -0.04932785l-0.3506775 -0.025295258l-0.3746338 -0.025295258l-0.7757721 -0.025299072l-0.50079346 0l-0.47554016 0.025299072l-0.45033264 0.050590515l-0.4250946 0.04932785l-0.4250946 0.10118866l-0.37464905 0.07462311l-0.37590027 0.12521744l-0.349411 0.10118866l-0.3254547 0.1505127l-0.32543945 0.15051651l-0.2749939 0.1505127l-0.30021667 0.1745491l-0.27497864 0.17581177l-0.22579956 0.17580795l-0.24975586 0.20111084l-0.22579956 0.17581177l-0.19929504 0.22513962l-0.17533875 0.20110703l-0.17533875 0.22513962l-0.15011597 0.20110703l-0.15010071 0.22513962l-0.12487793 0.25170135l-0.12489319 0.22513962l-0.075683594 0.25043488l-0.15010071 0.47684097l-0.12487793 0.47684097l-0.050460815 0.22513962l-0.023971558 0.45154572l0 0.20110703l0 0.50213623l0.07443237 0.45154572l0.09963989 0.42624664l0.15011597 0.4009514l0.15010071 0.3769188l0.22579956 0.3250618l0.24975586 0.3010292l0.30021667 0.27573395l0.3506775 0.25170135l0.3506775 0.25043488l0.39987183 0.25043488l0.39987183 0.2264061l0.4250946 0.20110703l0.4250946 0.22513962l0.47555542 0.17581177l0.5007782 0.17581177c0.52474976 0.17454529 1.0255432 0.35035706 1.550293 0.5261688c0.551239 0.1505127 1.1012115 0.32632446 1.6511841 0.47684097c0.60043335 0.17581177 1.1756439 0.32632446 1.7508545 0.50213623l0.5764618 0.17454529l0.5752106 0.20111084l0.5752106 0.22513962l0.52474976 0.22640228l0.551239 0.25043488l0.54997253 0.25170135l0.49952698 0.30103302l0.5007782 0.3010254l0.5007782 0.3250656l0.45033264 0.37691498l0.47428894 0.37565613l0.42636108 0.40221405l0.39987183 0.45154572l0.3746338 0.45027924l0.3506775 0.47683716l0.32543945 0.5527344l0.30021667 0.57675934l0.24977112 0.6020584l0.17533875 0.67668915l0.17533875 0.677948l0.09963989 0.7513046l0.050460815 0.7778702l0.025222778 0.8284683l0 0.55146027l-0.025222778 0.5514679l-0.075683594 0.5274353l-0.074417114 0.5261688l-0.12489319 0.50213623l-0.15010071 0.47683716l-0.15011597 0.4755783l-0.20056152 0.4768448l-0.20056152 0.42624664l-0.22453308 0.42624664l-0.2749939 0.42751312l-0.27497864 0.3756485l-0.3254547 0.4009552l-0.32543945 0.35162354l-0.37590027 0.35162354l-0.37464905 0.32505798l-0.4250946 0.32632446l-0.4250946 0.30103302l-0.4250946 0.27573395l-0.47555542 0.25170135l-0.50079346 0.2251358l-0.49951172 0.22640228l-0.551239 0.19984436l-0.52474976 0.1505127l-0.5752106 0.17581177l-0.5752106 0.12522125l-0.6256561 0.10118866l-0.6256714 0.09992218l-0.65089417 0.07462311l-0.67485046 0.050590515l-0.67611694 0.025299072l-0.7000885 0l-0.6496277 0l-0.6256714 -0.025299072l-0.6256561 -0.050590515l-0.60043335 -0.049331665l-0.60043335 -0.07588959l-0.5752106 -0.07462311l-0.54997253 -0.12522125l-0.551239 -0.1264801l-0.52474976 -0.12522125l-0.52601624 -0.1505127l-0.49952698 -0.1505127l-0.45031738 -0.1505127l-0.47555542 -0.17581177l-0.4250946 -0.17454529l-0.39987183 -0.17581177l-0.4011383 -0.20111084l-0.3746338 -0.20111084l-0.3506775 -0.19983673l-0.349411 -0.22640991l-0.30021667 -0.2251358l-0.30021667 -0.22640228l-0.2749939 -0.22514343l-0.25102234 -0.25043488l-0.24975586 -0.25170135l-0.20056152 -0.22514343l-0.17533875 -0.25043488l-0.15011597 -0.25170135l-0.15010071 -0.25043488l-0.09965515 -0.22640228l-0.050460815 -0.25043488l-0.049194336 -0.22514343l-0.025222778 -0.25170135l0 -0.19984436l0.025222778 -0.20110321l0.049194336 -0.20111084l0.050460815 -0.19984436l0.075683594 -0.20110321l0.09965515 -0.22514343l0.09965515 -0.20110321l0.12487793 -0.20111084l0.12614441 -0.17581177l0.15010071 -0.17454529l0.17407227 -0.1505127l0.17533875 -0.12648773l0.17533875 -0.07462311l0.20056152 -0.07588959l0.22453308 -0.049331665l0.20057678 0l0.17532349 0l0.17408752 0.025299072l0.17533875 0.049331665l0.20056152 0.07588959l0.15010071 0.09992218l0.20057678 0.09991455l0.15010071 0.12648773c0.1993103 0.12521362 0.349411 0.27573395 0.52474976 0.40094757c0.22453308 0.15052032 0.4250946 0.30103302 0.6256714 0.42624664c0.24975586 0.15052032 0.49951172 0.30103302 0.7253113 0.45154572l0.27497864 0.1505127l0.6004486 0.30103302l0.6508789 0.3010254l0.7000885 0.27573395l0.39987183 0.12522125l0.39987183 0.12522125l0.42636108 0.1264801l0.45031738 0.07462311l0.4743042 0.09992218l0.526001 0.050590515l0.5499878 0.050598145l0.5751953 0.025291443z" fill-rule="evenodd"/><path fill="#ffffff" d="m341.2707 83.20901c-2.9769287 0 -5.303009 -0.7766037 -6.954193 -2.281746c-1.8769836 -1.6556625 -2.8016052 -4.138527 -2.8016052 -7.5004425l0 -20.893715l-14.484863 0l-5.527527 30.476067c-1.2261047 6.797188 -5.3042603 11.638954 -12.482971 11.638954c-1.6259766 0 -2.9517212 -0.1505127 -4.02771 -0.40221405c-1.2008667 -0.27573395 -1.6764221 -1.028305 -1.4506226 -2.2071228c0.27496338 -1.6556625 1.224823 -2.4082413 2.8507996 -2.2324295l1.3017578 0.22640991c0.52474976 0.07462311 1.0003052 0.12521362 1.4506531 0.12521362c4.727783 0 6.6035156 -3.7628632 7.3048706 -7.6762466l5.4278564 -29.948631l-2.8016052 0c-2.8268433 0 -2.8016052 -4.4901466 -0.050445557 -4.4901466l3.6770325 0l2.4269714 -10.032627c0.67611694 -3.9133797 2.2011719 -6.8983784 4.577667 -8.904398c2.101532 -1.7808781 4.7278137 -2.6839676 7.8800964 -2.6839676c1.6007385 0 2.9264832 0.1505146 4.002472 0.4009514c1.2008667 0.27573204 1.7016296 1.0030098 1.4758606 2.2324238c-0.30023193 1.6303654 -1.2500916 2.3829384 -2.8760376 2.2071266l-1.2765503 -0.20110703c-0.52474976 -0.09992218 -1.0003052 -0.1505146 -1.4506531 -0.1505146c-4.002472 0 -6.4533997 2.4588299 -7.330078 7.3752193l-2.3765259 9.832783c4.578949 0 9.181854 0 13.759552 0l0 -9.406536c0 -1.7555809 0.8501892 -2.6093407 2.5266113 -2.6093407c1.7508545 0 2.6262817 0.85375977 2.6262817 2.6093407l0 9.406536l8.930817 0c1.550293 0 2.3512878 0.626091 2.3512878 2.156536c0 1.505146 -0.8009949 2.257721 -2.3512878 2.257721l-8.930817 0l0 20.217033c0 3.837494 1.926178 5.7688828 5.803772 5.7688828c0.39987183 0 0.79974365 -0.025291443 1.2008667 -0.07462311l1.926178 -0.40221405c1.4758606 0 2.22641 0.7525711 2.22641 2.2071304c0 1.0042725 -0.50076294 1.6556549 -1.4758606 2.0072784c-1.5263062 0.65265656 -3.2279663 0.95241547 -5.0784607 0.95241547z" fill-rule="evenodd"/><path fill="#ffffff" d="m68.44757 16.697956c-3.7741623 0 -7.988556 0.669096 -12.679768 2.248867c-1.1012192 0.37565422 -2.1519775 0.87779236 -3.1775093 1.4039612c-0.65089417 0.3010292 -1.2513275 0.65265083 -1.8757286 1.0042744c-1.2260971 0.72727585 -2.4017372 1.4798508 -3.528183 2.3576412c-0.29895782 0.25043678 -0.6244011 0.50087357 -0.9498482 0.7778702c-1.2008705 1.0030098 -2.3260536 2.131239 -3.3768158 3.3353558l-0.30021667 0.3769188c-0.951107 1.1282272 -1.8265305 2.332346 -2.6023026 3.636385c-0.19930649 0.35162354 -0.42509842 0.7019806 -0.62566376 1.0536041c-0.60043335 1.1535225 -1.1504135 2.332344 -1.6259651 3.5364609c-0.19930649 0.50213623 -0.37464142 1.0042763 -0.54998016 1.4798508c-0.399868 1.3053055 -0.7757721 2.6346397 -1.0255318 3.963974c-0.025226593 0.2504387 -0.07442474 0.4755783 -0.124881744 0.7019806l5.3534584 0.72727966c0.17533493 -1.0030098 0.4250946 -1.9566917 0.7000847 -2.9091072l0.35067368 -1.1041985l0.399868 -1.0536041l0.45032883 -1.028305l0.4755516 -1.0030098l0.52474976 -0.95368195l0.551239 -0.9283829c0 0 0.44906616 -0.65138626 0.5991745 -0.87779236c0.15010834 -0.22513962 0.47555542 -0.65138626 0.62566376 -0.8524933c0.17533493 -0.22513962 0.500782 -0.6273575 0.67612076 -0.82719994c0.17533493 -0.20110893 0.49951935 -0.6020584 0.6748581 -0.7778702c0.20056534 -0.20110703 0.54997635 -0.57676315 0.7253151 -0.752573c0.20056534 -0.20110893 0.57520676 -0.551466 0.7505417 -0.72727776c0.399868 -0.35162163 1.1756401 -1.0030098 1.5767708 -1.304039c0.39987183 -0.32632637 1.2248383 -0.9030876 1.6499367 -1.1788216c0.42635727 -0.2769966 1.3017807 -0.80316544 1.7521057 -1.0536022c0.45032883 -0.25170135 1.3509789 -0.70324516 1.8252716 -0.9283848c0.450325 -0.20110703 1.4014359 -0.6020584 1.8769913 -0.7778702c0.47429276 -0.17581177 1.4506264 -0.50087166 1.9514122 -0.65138626c0.47429276 -0.1505146 1.4758568 -0.3769207 1.97538 -0.5274353c0.62565994 -0.12521744 1.2513237 -0.27573204 1.8769875 -0.35162163c1.7899513 -0.23019981 3.5079994 -0.33770943 5.1528893 -0.33770943c16.238228 0 25.423866 10.420931 27.96688 15.112181c0.030273438 0.054389954 0.050460815 0.07968521 0.061813354 0.07968521c0.31282806 0 -7.0033875 -20.889923 -28.081673 -20.889923z" fill-rule="evenodd"/><path fill="#ffffff" d="m101.011055 39.6369c-11.143356 0 -20.853745 7.1273155 -20.853745 7.1273155c7.220352 -3.668007 13.574112 -4.9998703 18.994415 -4.9998703c14.372589 0 22.18203 9.363529 22.18203 9.363529c-6.0245285 -8.776649 -13.446709 -11.490974 -20.3227 -11.490974z" fill-rule="evenodd"/><path fill="#ffffff" d="m100.49514 44.029655c-18.236313 0 -30.943832 12.340939 -31.64518 12.942997c-17.035439 14.473446 -23.564533 23.577686 -24.714947 24.932316c0 0 26.190807 -23.853413 41.32529 -29.82341c2.7776413 -1.1041946 5.6536713 -1.706253 8.655846 -2.2071266c1.0255356 -0.1505127 2.076294 -0.3010292 3.1018295 -0.35162354c0.37590027 -0.025295258 0.7505417 -0.04932785 1.126442 -0.07462311c0.24092865 -0.0075912476 0.4856491 -0.011383057 0.73036194 -0.011383057c0.59033966 0 1.1869965 0.017707825 1.7710266 0.036678314c1.0747299 0.09992218 2.175949 0.19984436 3.2267075 0.4009514c0.37464142 0.07462692 0.7505417 0.15051651 1.1012192 0.25043488c1.1996078 0.27573395 2.3765106 0.65265274 3.5269241 1.1294937c0.54997253 0.25043488 1.1251831 0.50087357 1.6751633 0.7766075l0.8514557 0.47683716l1.6259613 1.0283089l1.5263214 1.1535225l1.4001694 1.2547112l1.3005219 1.3799286l1.2008667 1.4545555l1.0759888 1.5304413l0.95111084 1.6303673l0.87542725 1.7049904l0.7253113 1.7555847l0.62566376 1.8061752l0.49951935 1.8567657l0.3506775 1.8555069l0.24975586 1.9060974l0.09965515 1.9073639l-0.023963928 1.9313965c-1.1756439 12.716591 -10.981903 18.711884 -11.207695 18.862396c-4.909439 3.286026 -9.654892 4.409195 -13.849098 4.409195c-9.058243 0 -15.54319 -5.236389 -15.544449 -5.2376556l0 0c7.308655 6.870552 14.732094 8.5527725 20.243225 8.5527725c4.7706833 0 8.108391 -1.2597656 8.699997 -1.5038757c0.47555542 -0.20111084 0.92588043 -0.42625427 1.4014359 -0.6273575c1.0747223 -0.5514679 2.1759415 -1.1282272 3.201477 -1.7808838c0.7757721 -0.55146027 1.576767 -1.0788956 2.3020859 -1.680954c0.3998642 -0.32632446 0.7745056 -0.6513901 1.1504135 -0.97771454c0.7253113 -0.677948 1.4253998 -1.3546295 2.0762863 -2.1072083c0.39987183 -0.4515381 0.7757721 -0.9030838 1.1504135 -1.3799286c0.42510223 -0.55146027 0.8262329 -1.1282272 1.2008743 -1.7049866c0.3998642 -0.6020584 0.7505417 -1.2294159 1.1012115 -1.8314743c0.34941864 -0.6526489 0.6748581 -1.3293381 0.9750824 -1.981987c0.35066986 -0.82720184 0.7000809 -1.6796951 0.97507477 -2.5574875c0.100914 -0.35162354 0.22579193 -0.677948 0.32543945 -1.028305c0.15010834 -0.5274353 0.3002243 -1.0536041 0.42510223 -1.5810394c0.3506775 -1.5051422 0.60043335 -3.059616 0.7013397 -4.6153564c0.07443237 -0.8525009 0.12489319 -1.6796951 0.12489319 -2.5081558c-0.025238037 -0.72727966 -0.050460815 -1.4292603 -0.075683594 -2.1325073c-0.07443237 -0.87779236 -0.15011597 -1.7555847 -0.2749939 -2.608078c-0.1993103 -1.2547073 -0.45033264 -2.533455 -0.7757721 -3.7628632c-0.30021667 -1.0536041 -0.60043335 -2.1059418 -1.0003052 -3.1355133c-0.12487793 -0.35036087 -0.27498627 -0.7019806 -0.39987183 -1.0776367c-0.65088654 -1.5304413 -1.4014359 -3.010292 -2.251625 -4.4395523c-0.42510223 -0.70324326 -0.87542725 -1.4052238 -1.3509827 -2.0578766c-0.3998642 -0.5514641 -0.799736 -1.0776329 -1.2260971 -1.6050682c-0.8754196 -1.028305 -1.7760773 -2.0313148 -2.7763748 -2.9597015c-0.42510223 -0.3756523 -0.85019684 -0.7525711 -1.3005219 -1.1282272c-0.85019684 -0.677948 -1.7016525 -1.3293343 -2.6023102 -1.9060974c-0.3998642 -0.25170135 -0.82496643 -0.50213623 -1.250061 -0.7525749c-0.7000885 -0.40221405 -1.4014359 -0.7525711 -2.1267471 -1.1041946c-1.1251831 -0.50213623 -2.300827 -0.97771454 -3.476471 -1.3546333c-0.5007782 -0.1505127 -1.001564 -0.3010292 -1.5010834 -0.42624664c-1.0759888 -0.25043488 -2.177208 -0.47684097 -3.2771606 -0.62735367c-0.62566376 -0.07462692 -1.2513275 -0.17581177 -1.8757324 -0.19984436c-0.37590027 -0.025295258 -0.7505417 -0.07588959 -1.126442 -0.07588959z" fill-rule="evenodd"/><path fill="#ffffff" d="m35.013702 42.317078c-4.783293 0 -8.134878 1.2673569 -8.740358 1.5114708c-0.44906616 0.20110703 -0.9246197 0.40221405 -1.3749447 0.62735367c-1.1012192 0.55273056 -2.177208 1.1294937 -3.2027397 1.78088c-0.77450943 0.55273056 -1.57551 1.0788994 -2.300825 1.6809578c-0.39986992 0.3010292 -0.7757721 0.6273575 -1.1504116 0.97771454c-0.72657776 0.65265274 -1.4518929 1.3546333 -2.1015224 2.0819092c-0.37590218 0.47684097 -0.75054264 0.9283829 -1.1264458 1.4052238c-0.42509747 0.5514679 -0.82496643 1.1282272 -1.2248354 1.7049904c-0.37590313 0.6020584 -0.7253151 1.2041168 -1.0759897 1.8314743c-0.35067368 0.65265274 -0.6761198 1.304039 -0.9763365 1.981987c-0.34941292 0.827198 -0.7000866 1.6796951 -0.9750757 2.5587502c-0.12488079 0.3250618 -0.22453213 0.67668533 -0.32544613 1.028305c-0.15010834 0.5261688 -0.30021667 1.0536041 -0.42509747 1.579773c-0.35067368 1.505146 -0.6004343 3.05962 -0.7253151 4.6153603c-0.050456047 0.82720184 -0.09965134 1.6809616 -0.09965134 2.5081558c0 0.72727966 0.04919529 1.4292603 0.07442379 2.1325073c0.050456047 0.87779236 0.15010834 1.7302856 0.27498817 2.608078c0.20056534 1.2547073 0.45032597 2.5081558 0.7757721 3.7628632c0.27498913 1.0536041 0.6004343 2.1072083 0.9750757 3.1355133c0.15010834 0.35035706 0.2762499 0.7019806 0.42635918 1.0536041c0.6496296 1.5291824 1.4001732 3.0343246 2.250368 4.4648514c0.42635918 0.70197296 0.87668514 1.3786621 1.3270111 2.05661c0.39986897 0.5261688 0.82496643 1.0788956 1.2500648 1.6050644c0.87542343 1.0283127 1.7760754 2.0313187 2.7763786 2.93441c0.42509842 0.40221405 0.8514576 0.7778702 1.3017826 1.1535187c0.82496834 0.677948 1.7003918 1.3053055 2.5758152 1.8820724c0.4250965 0.27572632 0.85019493 0.5261688 1.2765541 0.7778702c0.7000866 0.40094757 1.4001732 0.7525711 2.1254883 1.1029282c1.1264458 0.50213623 2.3020859 0.978981 3.477728 1.3546295c0.49952126 0.15052032 1.0003033 0.27573395 1.4758568 0.42624664c1.0999584 0.2504425 2.1759472 0.4768448 3.2771626 0.6273575c0.62566376 0.07462311 1.2752953 0.1505127 1.9009552 0.20111084c0.37464142 0.024032593 0.7505455 0.049324036 1.1251869 0.049324036c0.018920898 0 0.037841797 0 0.05550003 0c18.207298 0 30.889587 -12.340935 31.564445 -12.917702c17.035439 -14.472176 23.589767 -23.602982 24.71621 -24.957611l0 0c-0.0012588501 0.0012626648 -26.19207 23.879974 -41.301323 29.84871c-2.801609 1.1041946 -5.6536713 1.706253 -8.655846 2.2071228c-1.0255318 0.15052032 -2.076294 0.27700043 -3.1270523 0.35162354c-0.34941483 0.025299072 -0.7253151 0.050598145 -1.0999565 0.050598145c-0.3153572 0.018966675 -0.6344948 0.026557922 -0.954895 0.026557922c-0.5171814 0 -1.0368843 -0.021499634 -1.5464973 -0.051856995c-1.1012154 -0.07588959 -2.1772041 -0.17581177 -3.2267036 -0.3769226c-0.37590408 -0.07462311 -0.7505455 -0.1505127 -1.1012192 -0.25043488c-1.2008686 -0.27573395 -2.3765087 -0.65138245 -3.5269222 -1.1282272c-0.57520676 -0.25170135 -1.1264458 -0.5274353 -1.7016525 -0.8031616l-0.85019493 -0.45154572l-1.6007385 -1.028305l-1.5263138 -1.1535263l-1.4014359 -1.254715l-1.30052 -1.3786621l-1.2008705 -1.4558182l-1.074728 -1.5291748l-0.9763355 -1.6303711l-0.85019684 -1.706253l-0.7253132 -1.7555847l-0.62566376 -1.8061752l-0.50078297 -1.8555069l-0.37464046 -1.8820648l-0.22579384 -1.8807983l-0.09965229 -1.9313965l0.0252285 -1.9060974c1.1504126 -12.717857 10.981898 -18.711887 11.206431 -18.8624c4.909437 -3.2872925 9.656149 -4.4104614 13.850363 -4.4104614c9.058239 0 15.543182 5.2376595 15.543182 5.2376595c-7.29982 -6.876877 -14.714432 -8.560364 -20.228088 -8.560364z" fill-rule="evenodd"/><path fill="#ffffff" d="m16.492313 94.24591l0 0c6.1569786 9.879585 13.754494 13.089722 21.029087 13.089722c13.505997 0 25.900684 -11.065994 25.900684 -11.082436l0 0c-9.670025 5.937111 -17.867977 7.9810715 -24.574932 7.9810715c-14.822916 0 -22.353579 -9.987091 -22.35484 -9.988358z" fill-rule="evenodd"/></g></svg>
