<svg id="SvgjsSvg1006" width="957" height="240" xmlns="http://www.w3.org/2000/svg" version="1.1" xmlns:xlink="http://www.w3.org/1999/xlink" xmlns:svgjs="http://svgjs.com/svgjs" viewBox="0 107.45 288 72.08"><defs id="SvgjsDefs1007"/><g id="SvgjsG1008" transform="matrix(1,0,0,1,0,0)"><svg xmlns="http://www.w3.org/2000/svg" viewBox="0 0 75 19" width="288" height="288"><path d="M0 0V4.05334H6.53984V18.75H10.7985V4.05334H17.3384V0H0zM33.8702 10.9449C34.5092 10.71 35.0981 10.3517 35.6049 9.88946 36.1808 9.3618 36.6305 8.7059 36.9192 7.97236 37.2079 7.23882 37.328 6.44725 37.2702 5.65873 37.2987 4.87975 37.1534 4.10434 36.8453 3.3913 36.5373 2.67826 36.0745 2.0463 35.4921 1.54331 34.0826.43766 32.33-.11037 30.5569.0000261953H19.7236V4.02675H30.5655C30.8024 4.01254 31.0399 4.01254 31.2768 4.02675 31.6107 4.05409 31.9315 4.17208 32.2059 4.36854 32.4804 4.56499 32.6986 4.8328 32.838 5.1443 32.9398 5.38721 32.9873 5.65031 32.9769 5.91439 32.9666 6.17846 32.8986 6.43683 32.7781 6.67061 32.6576 6.90439 32.4875 7.10767 32.2802 7.26559 32.073 7.42352 31.8339 7.5321 31.5803 7.5834 31.2449 7.63901 30.9054 7.66571 30.5655 7.66323H22.3257C21.6356 7.66323 20.9737 7.94356 20.4858 8.44256 19.9978 8.94157 19.7236 9.61836 19.7236 10.3241V18.7146H24.2859V12.4172C24.2859 12.182 24.3773 11.9564 24.54 11.7901 24.7026 11.6237 24.9232 11.5303 25.1533 11.5303H28.9523C29.1191 11.5307 29.2823 11.5802 29.4223 11.673 29.5623 11.7658 29.6732 11.898 29.7416 12.0536L32.6559 18.6968H37.513L33.8702 10.9449zM45.753 14.7144C45.5229 14.7144 45.3023 14.621 45.1397 14.4546 44.977 14.2883 44.8856 14.0627 44.8856 13.8275V10.8296H54.4872V6.9359H44.8856V4.94028C44.8856 4.70505 44.977 4.47945 45.1397 4.31312 45.3023 4.14678 45.5229 4.05334 45.753 4.05334H56.5949V0H42.353C41.7779 0 41.2263.233614 40.8197.64945 40.413 1.06529 40.1846 1.62928 40.1846 2.21736V16.5326C40.1846 16.8238 40.2407 17.1122 40.3496 17.3812 40.4586 17.6502 40.6183 17.8946 40.8197 18.1006 41.021 18.3065 41.2601 18.4698 41.5231 18.5812 41.7862 18.6926 42.0682 18.75 42.353 18.75H56.9852V14.7144H45.753zM65.4678 14.7144C65.2378 14.7144 65.0172 14.621 64.8545 14.4546 64.6918 14.2883 64.6005 14.0627 64.6005 13.8275V0H59.8994V16.5326C59.8994 16.8238 59.9555 17.1122 60.0645 17.3812 60.1734 17.6502 60.3332 17.8946 60.5345 18.1006 60.7359 18.3065 60.9749 18.4698 61.238 18.5812 61.5011 18.6926 61.783 18.75 62.0678 18.75H75V14.7144H65.4678z" fill="#ffffff" class="color000 svgShape"/></svg></g></svg>
